<mxfile host="app.diagrams.net" agent="Mozilla/5.0 (X11; Linux x86_64) AppleWebKit/537.36 (KHTML, like Gecko) Chrome/136.0.0.0 Safari/537.36" version="28.0.6">
  <diagram name="Page-1" id="q18oyj5nkHdAvPVPkrR_">
    <mxGraphModel dx="742" dy="450" grid="1" gridSize="10" guides="1" tooltips="1" connect="1" arrows="1" fold="1" page="1" pageScale="1" pageWidth="827" pageHeight="1169" math="0" shadow="0">
      <root>
        <mxCell id="0" />
        <mxCell id="1" parent="0" />
        <mxCell id="IY5RS1loPKQpmdRNmgUw-1" value="S1-pre: w == 0 * v == p * sll(p, l)" style="rounded=1;whiteSpace=wrap;html=1;" parent="1" vertex="1">
          <mxGeometry x="367" y="160" width="280" height="30" as="geometry" />
        </mxCell>
        <mxCell id="IY5RS1loPKQpmdRNmgUw-2" value="inv:&amp;nbsp; exists l1 l2, l == app(rev(l1), l2) &amp;amp;&amp;amp; sll(w, l1) * sll(v, l2)&amp;nbsp;" style="rounded=1;whiteSpace=wrap;html=1;" parent="1" vertex="1">
          <mxGeometry x="367" y="220" width="340" height="30" as="geometry" />
        </mxCell>
        <mxCell id="5ztmRmx8na6e_iPSnERG-1" value="S2-post: sll(w, rev(l)) * v == 0" style="rounded=1;whiteSpace=wrap;html=1;" parent="1" vertex="1">
          <mxGeometry x="367" y="290" width="280" height="30" as="geometry" />
        </mxCell>
        <mxCell id="IKD4-JbFTbAdGUygyEOD-3" style="edgeStyle=orthogonalEdgeStyle;rounded=0;orthogonalLoop=1;jettySize=auto;html=1;entryX=0.5;entryY=0;entryDx=0;entryDy=0;exitX=0.5;exitY=0;exitDx=0;exitDy=0;" edge="1" parent="1" source="OzCYgiXdp6vfwCIhIYNj-2" target="IKD4-JbFTbAdGUygyEOD-1">
          <mxGeometry relative="1" as="geometry" />
        </mxCell>
        <mxCell id="OzCYgiXdp6vfwCIhIYNj-2" value="" style="shape=image;verticalLabelPosition=bottom;labelBackgroundColor=default;verticalAlign=top;aspect=fixed;imageAspect=0;image=data:image/png,iVBORw0KGgoAAAANSUhEUgAAA04AAAH9CAYAAAAtYSxzAAAABHNCSVQICAgIfAhkiAAAABl0RVh0U29mdHdhcmUAZ25vbWUtc2NyZWVuc2hvdO8Dvz4AAAA9aVRYdENyZWF0aW9uIFRpbWUAAAAAADIwMjXlubQwN+aciDIz5pelIOaYn+acn+S4iSAwOOaXtjIx5YiGNDTnp5IskXoUAAAgAElEQVR4nOzdeVzM+R8H8FenKaUTFSJChFTEb8mRUJZ151zFhmWP1q4f1pK1dn9rWXbDutdVrGvdiRblzFUpV9JF6SC672N+f8w2Zvp+v3PUTDPxfj4eHo/mM9/5fj+Zmr7vz/F+a/D5fD4IIYQQQgghhHDSVHUHCCGEEEIIIUTdUeBECCGEEEIIIVJQ4EQIIYQQQgghUlDgRAghhBBCCCFSUOBECCGEEEIIIVJQ4EQIIYQQQgghUlDgRAghhBBCCCFSUOBECCGEEEIIIVJQ4EQIIYQQQgghUlDgRAghhBBCCCFSaKu6A4Soq717gaAg2Y+fNAnw9VVsH4qLgT/+AC5eBKqqgH79gM8+A5o3V+x1CCGN1+vXr2FmZqbqbqiV1MBQvDh4CZVFpWjawQodFkxEs242DXLt/NhExH65kfU5573fQq9tywbphyrl5eXByMhI1d0gROEocCKEw/PnwIULsh/v4qL4PsyYAfz999vHFy4Ahw4BERGAsbHir0cIaTySk5OxYsUKnDlzBs+fP4eBgYGqu6QWEtcfxoNvtggfv74cg7S/LsL1ygYY9+qs9OtX5BXh9eUYRnvLEX3ei6AJACZOnAhLS0usXr0alpaWqu4OIQpDS/UIUVOhoeJBU424OODnnxu+P4QQ9VBVVYWlS5eic+fOCAwMRE5ODrZs2SL9he+ByvwiPPx2B6O9uqQc9z5dr4IevWXU01al128oeXl5CAsLw759+2BnZ4cNGzaouktKU1VVheTkZKSlpaGoqEjV3SENgGacCFFTycncz8XGNlw/CCHq49WrV/Dy8kJ4eLhY+++//w4/Pz/o6uqqpmNqoiTtFfjllazP5UXFN3Bv3k8hISGorBS8B/n5+fDz80NoaCgCAwNhYmKi4t7VH5/Px507dxAWFoZnz56hqqpK+JyNjQ2mTp0Ka2trFfaQKNM7GTi9LHqJm2k3EZkRiYKyAqwfrtpRJvJW/Ot4RGZE4s6LO+hs3hlzneequkucrK0Bd3dme34+cPu28q/fo0fdnlNnRUVAZCRw757g38aNQNOmqu4VIY1DfHw8hg8fjpSUFGFb165dERQUBEdHR9V1TI3o21hCu5k+KvOLGc8ZOXVSQY/eP+7u7vD19cXOnTuFbcHBwXBwcMDJkycb9c9qbm4uNmzYgBcvXrA+n5ycjJ9++gkjRozA6NGjG7h3pCG8M4HTqSensOXuFkRnRCOrKEvYPqXbFBX2igDAmutrcOrJKcRmxaKgvEDYvm3kNhX2Sjpvb8G/2q5dA1xdlX/9//wHmDgROHJEvN3EBFi8WPnXV5SnT4EffhAESo8eAdXVgnZbWwqaCJFVUlIShgwZgrS0NGGbr68vNm7cCB6Pp8KeqRctvSawWzkTDxb8wXiu29pPVdCj94+5uTl27NiBSZMmYcaMGcjIyAAApKamwtPTE+Hh4bCzs1NxL+WXm5uLX3/9Fa9evZJ67NmzZ5GVlQVfX19oatKumHfJOxM4BT8NxrmEc4z2MXZjVNAbImr3vd2Iy45jtE/oOkEFvWlctmwBunUD7t4FSkoAJydg9GjA1FTVPZNdbCx7dsJRoxq+L4Q0RllZWXB3dxcLmvz9/bFy5UoV9kp9dfhyHMDnI+fWY5RmvkHT9pYwd3OC+eDGO9PRGLm7uyMyMhLjx49HREQEAMHPsqenJ65cuYI2bdqouIfy2bp1q1jQ5OzsjKFDh8LS0hLFxcV4+PAhDh06hIqKCgBAZGQkWrVqhQ8//FBVXSZK8M4ETrmluaztHc06NnBPSG1s740xzximeo3o7l9FzMwAf39V96J+ctl/NdG+fcP2g5DGiM/nw8fHB8kimx7/97//4dtvv1Vhr9ScpiY6LJio6l4QAJaWlggPD4eXlxdOnjwJAEhJScGoUaNw7dq1RpMJMjw8XOx3cPz48Rg2bJjwMY/Hg6urK9q3b481a9agtLQUgGCJoqOjI6ysrBq8z0Q53pnAKackh7W9rVHbBu4JqY0tcGpl2EoFPSGqkMP+q4nWrRu2H4oWHh6O2yKb3fr27YsBAwaosEfkXbR69WqcO/d2NcXXX39NQRNRuKSkJBw9elT4uFWrVpg2bZpCzq2rq4uDBw8Kl+kBQExMDD7++GMcO3YMGhoaCrmOspSXlwuDPgDo3bu3WNAkqlWrVvjyyy+xdu1a8Pl8VFVV4cSJE5g/f35DdZco2Tuz8DKvLI/RxtPm0ayGivHBR2llKaO9jVHjmqIndZfH/NUEADSyVRoMpaWlSExMFP7T1n5nxqGImkhISMCKFSuEjwcOHIh169apsEfkXaWpqSn2eVZeXq7Q8/N4PJw+fRq2tm9Tsp84cQLr16t/8q6bN2+iuFiQbKRJkyaYPHmyxOM7dOiA4cOHCx/HxMTItC+KNA4N9pe+tLIU155fQ8KbBGQVZcFc3xxWhlboZdULbZrV/w6KbcbJ2qhh0kEWVxTjYvJF3H5xGzxtHtoZt4N9c3v0tOjZINevr6KKIlx7fg2peanILMxESWUJeNo8dG/RHcM6DIO+jn6dz51ZmMna3rpZI59ueIfw+YJMd/HxQGoqYGgIWFgIkjcoInsf11K9xh44NWvWTOxxixYtVNQT8q5aunSpcL+Ejo4Otm1T74Q60hQ8fob8mESUpmeDX80Hr5U5DDq1gbGjLdCINtBX5BQg59ZjFCWmo+xlDoydOqGFpws0dXVU3bU6q/151rx5c4Vfw8DAAH/88YdYUPHjjz/ik08+gbEaV3QXTf0/ZMgQmZYXlpWViT0ODQ1V2AweUS2lB04Xky8i4GYAzieeR3kV+whGT4ueGNdlHBb0XQADXck/kDuidmDO6TkyXTv+dTw0VnJPARd/Vww9bT3O5yMzItFrey9G+8C2AxHuE47MwkzMC56H4PhgVFRXMI4z1zfHGLsxWNRvETqaMvdabbm7BfODmdO3IdNC4GHrwdmv+Nfx6LyJWf18fJfxOOp1lOUV7EITQxFwKwAXki5wvjd62noY33U8/Pr4oZcV8/9C1LRj03Dg/gGZrr0zaid2Ru1kfa6XVS/cmX1HpvO8K06eBMbImMfE3BxQxOBVUhIQEAAcPAi8fMl+TMeOgiQOX30lPdBJSQFsbGS/fsuW3M+dOweI/G1VS7VvNNTxD390dDTOnDkjfOzl5YXOnZmfHfL4+eefhTVahg8fDhcXl3qdj7CLiIjAEZGUmp9++mmd3rtX/9zFjWH/ZX2u5/Zv0Hb2SKnnyDh2BbfHr2C0uz3aA8MuUpbDV1cjaeNxPNt1FvmxSayHaDXloeWHfWHn7w1D+3ZS+1OjIqcAZ00/kvn4QVHbYeRY933PL0PvIM5/N3JuPwb44s9pNeXBcqwruv48u87nVyUjIyOxx8r6PBs2bBi8vb2xd+9eAIJMdb/99pvaJjrJzMwUSz3+wQcfSH1NdHQ0wsLCxNpiYmIocHpHKC1wisqIgt85P1x7fk3qsfcy7+Fe5j1sur0Jqwavwhxn2QIjVXry+glGHhiJhDcJnMdkF2djZ9RO/Bn1J/z6+uEnt5/qNXujKC+LXuKzs5/h6CPpQVZJZQmCYoMQFBuE2U6z4T/Qn2aLGrlXr4Bly4Bdu4BK9jqRQk+fAuvXA1u3Ap9/Dnz/PaDHPdbwXqkdOKljYceSkhL4i2QX4VqXL48ff/xRuGzF3t6+wQOnhIQEPHjwQKHntLS0RJ8+fRR6zvoSrYGjqamJBQsW1Ok8zd2dodemOUpSmaMtZq6yTSlnX45htDVpaSI1aMqPTUSU92rk3eP+OwkAVUWlSD8cjvTD4eiwYAK6rZsPqNm+l5j5vyFlyynO56uKSpEW9A+yzkSgw4LGlzFWS0sLenp6KCkpAcAMpBRp5cqVOHDggHA2NSAgAAsWLFDLwadYkWrzLVq0kDoT9+rVK+zevZvRnpeXh9TU1EaXSZAwKSVwCn4ajAmHJ7DubZHkZdFLzD0zF3HZcWpdtDa9IB19dvRh3VfFhg8+Am4G4LPen8HW1Fb6C5QoLjsOQwOHIi0/TfrBteyI2oED9w/gkvcluLSiUebGKCVFMJMTHy/f64qLgTVrBLWYjh8H9FUf/ytdQUEBsrKyxNbkixK9sWjatCm0tLQknsvQ0FDhfZSmZ8+e0NbWFs4QSboZSk9PR3x8PHR1dSWOqtbc7ABAexWkRkxKSkJISIhCz9m9e3e1CpzKy8tx7Ngx4eNx48bBRp7pXFEaGmjz8TDE/28/46k3EQ9hYCd9STtb4GQ+SPJS9MwzEbg7+QdUFcl3H5D421GUvMhGr/3LoKHN/TvVkBJ+PSQxaBJVkVuIuBV7lNuhOoqOjkbPnj05kzEYGhoKAydJA0EFBQUwMDCoc1KHtm3b4tNPP8XGjRsBCIKKoKAgfP7553U6nzLdv39f+LW0Gd/y8nJs2rRJuEyvffv2SElJQfW/xQsfPXpUp8Dp2rVr2L59O7S0tDB37lz07dtX7nMQxVH4ouL0gnRMOTpF7qBJ1G83f8N3l75TYK8U6+mbpzIHTTXGdRmn8qApNisWfXf2rVPQVKOooggeQR54+uapAntGGkJ1taCgr7xBk6jQ0Pen/tLly5exdu1arF27Fg8fPmQ8LzrjxBUUPXnyBBs2bMCSJUtQWFiotL5y0dfXR/fu3YWPo6KiOI9dt24dBg8ejH79+gkLVtaWn58vFjhxBZWkfkJCQpArsjnQy8urXudr68teRyZ1/wWpr63IKUB+TCKjvaUnd6CZfiQctz5aKnfQJHz94XA8XKwe+7leX7uvNn2pj4SEBGzduhXLli3D5cuXUVVVxThG9HOMbfYnOzsbgYGBWLJkiVhAUReLFi0Seyw6w6pOnj9/Lvy6U6dOEo8NDAxEZqZgX7eBgQHmzp0LCwsL4fOpqalyX//s2bMYPHgwAgMDsWfPHri6uootvyYNT+EzTivCV6CgvECszaiJERb3X4w5znNgpmcGAEjKScLp+NM4+/QsQhNDGefp25o9orY0sES/Nv3E2ooqinAv8x7rse1NuEdEtTQUM5qlo6kDBwsHOFo4oqSyBBeSLjCSInzrqtr0sS+LXmLkgZGcAZ+TpRPcbNzQ26o3KqorEJcdh7NPzyIqg3mjVc2vZj2Hnbkd471JL0hHcm4y67E1Pwu1dWneRdq3887p3Bn44Qdm+969QCLznqVO/v4buHJFvE1TE/jiC2D+fKDmb0JuLhAWBoSEAH/9BdS+3+damcXjAe7uzPbLl4GKWlsAjYyA3r25+6rqVW98Ph9Xr14FILjh2LBhA6ytreHp6QknJycAgIaGBgwMDFBYWCg2k8Pn8xEZGYnQ0FA8e/ZM2B4eHo6RI6XvJ1E0R0dHREdHAxAUZJw6dSrrcdevXxd+febMGcyezdyr8ebNG+HXVlZWKqnBYmJigg4dOij0nJaWlgo9X31dunRJ+LWenl69f270bSxh2r873lwTv9nNvhSFsqwcNGnJ/Qv36kIks1FLE5Zj+7Men3cvAZHePzP2AAGAfgcr2C2fgZYj/4OKnAKkH7uCp6sPoCKHOaiQuP4Imrs7SwzQtPSaoLP/DEZ7dlg0Xl+t3409AJS/zscdr++BauY3o9vcCLbfTIKJix0q84uRc/cJss5ESF2WqCo1e26ys7Nx4MABnD17Fu7u7hg4cCB0dXUBvB0M0tLSEvvdfvbsGc6ePYuYmBjw+YL/iwsXLqBHPbIHtW7dGqNHjxam+Y6JicHt27fVas9kTk6OsB4TALEgqLYrV64Iy1NoaGjA19cXxsbGsLKyQnp6OgCI7ZWSlZ+fn3DFAABUVlZiwYIFKvlbQgQUHjgdeXiE0bbBcwNmOIh/uLU3aQ+/Pn7w6+OHcwnn4H3CGy+LBDvUZ/aciVGd2Ie1R3YaiZGdxH9gwlPCMXjvYMaxk7tNVvqSP09bT+wbuw/m+ubCtsrqSqy5vgbLLi0DH3wMsRkCZ0tnpfZDmgXnFyA1nznaoQENrB++Hl/1/Yrx3KrBq3Dg/gHMPDlTmDxCAxo4NPEQa7KL5QOWY/mA5WJt/mH+WHVlFePYNUPXcL7H7yM7O2D5cmZ7WJjiAqejLFva5s4Ffv9dvM3YGBg7VvBvyRLBLNW1f7cqOjoK9jmxsbAA/vmH2c62gq17d/Zj1UVKSgry8/PF2p4/f45t27bBwsICI0aMgIuLCwwNDYWBU0VFBW7cuIHQ0FBkZ2czzhkZGamSP3ZOTk7YtWsXAODePeYAEyBYehMZ+fYG+dy5c6yBk+j31bGjaoqL9+7dG70lRd3vgJpAFwAGDBgAPQVsLLT2Hs4InMAHUgNDYbtwEufrXoVFM9rMXXtAu1lT1uOjZ/2C6hJmsqGWI/+D3gf9odWUBwDQNWuGjoumoJXXYNwc+S0KHqYwXhP/Y6DEwEmTpwu7lTMZ7Y8rqxQSOCX/cRxlGW8Y7XrWLeB6dQP0rN9muLEY3Q92/jMQMWIJe7CpQlVVVXj8+LFYW25uLo4ePYpz587B3d0dgwYNEgZONQNBsbGxOH/+PBISmMFgYmIicnNz67UvycfHR6w+0vXr19UqcKoJeGpw7W9KTU3FwYMHhY9HjBiBLl0EA8CigzKiA0+yqKysFBt8q/Hs2TNUVlZSCQwVUej/el5ZHuuMho6W5BSdHrYeiJwTiQG7B4APPjaO2CjXdV+XvGZtN+Ipb3MjAHzV9yv8Nvw3Rru2pjaWui6FjYkNpv49FUv6L1FqP6R5lvcMhx4cYn1u3fB1rEFTjandp0JbUxuTj04GH3ysGboGwzvInu7sTQn7B4UxT/02gb7rWD5/oSMle2779sDFi8D06cCZM4IZsCZNZL9mXp5giWBttfIqqB0bGxv89ttvuH//PmJiYhAbGytct56ZmYldu3bh5MmTwpHAtLQ01uV4ZmZmcHBwgJOTk8qWtdXMkAHA3bt3UV1dDc1aqZ9v3LghNqp59uxZFBcXQ7/WZjbRP+Kq2N/0PqiursadO2+zinbt2lUh5209ZQhiv9iA6lLxoCbtwAWJgVPmyeuMNquJA1mPzQq5hbxo5k22kaMt+hxfxbpnSb+dBVyvBOBC5xkozxa/f3hz4yFy78TBuLcdZ/+UhV9ZhWSOfU3OQd+JBU01NHS04fjnfxFqM4V1lkpVtLS0sHbtWsTFxSEmJgbR0dHCgaHCwkKcOHEC58+fh6mpoO5lRUUFVqxYIVx2VkNPTw89evSAo6Mj7O3thTNVdTV4sPiA961bt+p1PkUT/TzX0NBgHcAoLS3FH3/8IVz6aGtri1Ei69lFP0NLS0vB5/Nl3humra2N6dOnM5JNTJs2jYImFVLo/7yuFvsv0cZbGzGswzDOpVmAoK6P/0B/2JraoqkO+0gWl+xi5uguALFZIEUb0HaA1NmsKd2moKyyDO7tWdYvNaAdkTtQxWeuZ/6o80dY0Fd6piYvey+si1iHTmadsPCDhXJdmytwaq6v+BoRRDK2v3GHDwtmnSTdm+nqAv7+wJAhgpkiebxmH9OAGfdHgdrg8XjC2Y2qqirExcXh3r17iI2NRW5uLl6LfHOiI5Nt2rSBg4MDHB0d0bq16jNQiiaIyM/Px6NHj9CtWzexY65dE89+WlpaigsXLuCjj8RTPYuu0Ze23p/UTUJCgtjyoNrvVV1pNeWhldcgpO4TXxqfF52AgkcpMOzajvGa/PtJKE0X/yXW0NZC68lurNdI2XKStd1u5UyJiR50TJuhs/8M3P+SOWiafuyqSgKn7LBolGUy/35ZjukvMRuhnnVLmLn2wGuWhBqqpKWlBXt7e9jb22Pq1Kl49uwZoqOjERsbixcvXqCkpES4lKygoAAFBYItF6ampsJgqVOnToxBl/owMjJCly5dhLNhogMG6kC0FhNX8p/t27cjJ0dQR9TIyAjz5s0TC4yaNhW/n83Pz5crY+Hvv/+Oly9fIjg4GAAwcuRI/F57mQhpUAoNnPS09WBrastI0R2RFgGLXy3gaeuJ//b7L/q27gsdTeZQt09PnzpdN6+Ufd9Oy6YSCsXU0/IBy6EB6aMGdf2eFCk8JZy1feUg2esm/Oj2Iwa2ZR9llIRrT1VLA+W9N4SdgwPw77YdocxMwN4eGDhQUKtpyBBBAdzaunUT/JNXHkcOFSXUVlQq0ZuOadOm4dmzZ9i9e7dYEgVnZ2dMmDBBOGqrLvT09ODg4CBcihcVFcW4GY+IiAAgCBZrbtpDQkIYgZNogFizFIUoVu3lPIrcf9X2kxGMwAkA0vZfQJeffBntLw6FMdpaftgXOqbMKWN+ZRVehTGXgvKszGAx8j9S+2Y90xMPF21jzIi9uhAJqKA2UnY4+7LWNt7SV1yYD3RQu8CptrZt26Jt27YYM2YMcnNzcfDgQbElolZWVvDx8UHbtlLqdNVTz549hYFTUlISqqqqJGYobUiiiXDYkmmcO3dOmDhIQ0MDc+bMYez7rO8y22bNmuHMmTOIj4+HpqYmJeRRAwrPqjfbif0DrrK6EqfjT2PA7gEw+J8BnLY54bOzn+F43HFUVkspJiNFYTl7tiplLQdr0bSFymeRZFVeVY7bL24z2m2MbdDTQnI6WVFD2w/lnFGUhO290dTQhFET5S6jJEwzmVsBhC5fFuxpMjYGevQAfH2BwEDuwEdWXInk1LBch1zS09MZmecePHiA8nL2QtKqJrpcT/TmCBCMqtYkhvjkk0+ES0BOnTol3AheQ3TGqb6FdAm7vFq/dLVHrOvDbIAD9NsxN7g/ZwmmAOD53vOMtrazPFmPzbkTh6rCEuY1BzrIVJNJ20APJi7MmaXcqHjwK5k3rcr2JoKZSROQrfaV1KLAaqaoqAiPHj0Sa0tPT0dWVpbSr11735BoNklVEw3g+Hy+MFU7IJgZFt2fNW7cONagpnbAxePx6tSXTp06UdCkJhQeOH39n68xtP1QiceUV5UjOjMam+9sxrhD49B6fWusj1gPPlsaHhkUVRSxtpvoKSc1l6oTPcgjJTcFFdUVjHYnSyeWoxWvuKKY0WagawBNDYX/6BEpnJyAn3+WfEx1NXD/PvDnn8CMGUCbNsA33wC18iTIrJj59gMQZNVrrOLi4hAYGAhAsH590iTB/pCysjIEBASI/XFVFz17vh0kEU0CAQiWx9TMMo0ePRqDBg0CILhxqskSVSMlJQWAYO09LdVTjtpJSRSdudCaJfApTXuF17USR+TcfozSNPGiubxW5mj5IfvsUdFT9jIXbEsAubDWlKrmoyK34VP5l71ijhrptjCGrpn0DZq8VsrbJqBoubm5CAgIEC5LE90/s2fPHtbkBIpUe4b+Ndf6bhWovcezqEhwr1lQUICtW7cK6zM5ODhwFhcXHUzT0tJCE3k2CRO1pPC7V21NbQRPC5ZriVpWURa+Cf0GrrtcOfcrScJ2c17TF2VoTIkNaqdFr9FQ3wPbe6Os94VIt2QJsH07IOvqgYICYP16wNkZqMvyc67AqbHua83MzMTmzZuFo4jTp0+Hm5sb7O3tAQiWWW3atEn4B1VdiM443blzR6x/Nfub9PX1MWDAAAwd+nbg6+zZs2LnSfw3xaO9vb1C9zqQt2pvuK+5WVOUtrNGgG2VeWqg+KzTi4OXGMe09f0QGlrs73vZS/aZAh1j2QM/HY5MfeWv6zhyUw/lr5mBk7aBbB+cWvp1m1VoaOXl5fj999+Fs5yurq4YMGAAxowZA0AwW7Jx40alzgLVXsomuq9I1WoHTmlpaeDz+di2bZvYHrCZEpZziM4gq9syblI3Srl90dHUwe7RuzGx60T8dPUn3Ei9IdPrrqdeh8NWB4R5h6GTmeyjmVzFdpV1g17XatmqwBVUNpSySuaHoKLqZ5G6mT0bcHUF1q0D9uwBKmVYKZuQAAwaBBw8KF8B3FKO+peNMXAqKCgQG5l1cnKCs7Ng9tnb2xv+/v4oLS1FQkIC9u3bBx8fHxX2VlzPnj2hqamJ6upqlJaW4v79+3BwcAAgyKgHCNJeN2nSBMOHD8fixYsBCAKnlSsFeyFfvXqFV68EMxCKyvRWF3fu3BHWpFGUDh06YPz48Qo9Z13V3jiu6JtWXitzNB/izEiZnX4kHA6b/KChow3w+Ug7cFH8hZoaaDeX+5e/qoT9hleev5eauuwfDNVlDb8Elm3ZoYaMgwXV5cxVHuqGz+dj69atwiXHJiYmwkLL7u7uuHPnDp49e4aCggJhEe/6ZtFjU3tPX33Smyta7bpNycnJSEpKwtOnTwEIZpDmzZsncR9TzWcmwJ3OnDQuSh0yHNFxBK7Puo5jk45hYNuBMiVTSC9Ih0eQB6OIriRsN+cA6r136l3QomkL1vac0pwGuT5bUMuW4Y80LDs7YMcOwbI8b2/Z0oMXFwNTpwLRzLIunLgCJ1mCNXVSUVGBgIAA4R95AwMDTJs2Tfi8kZERJk6cKHwcERGBCxcuNHg/ufB4PLFZp5rletXV1cIZJzc3QaY0BwcHWFlZARCkL09LEyzBEt0DoahMb3WRk5ODxMREhf6rvV9NlWrfOIreeCkKW4KDipxCZJ4RJAl5fTUWZVnifyMsx7qCZ8mdDpNrCVtFvuwzZhV57MeyJaNQNi2W2aXKAtkGImU9TpX++usvYWIDQLC/sSYw0tDQwKxZs4R7fF68eIFt27YppR+1AyczNUq5am5uLhYU3b59G+fPv933N2XKFFhbsywvFSH62SKpgC5pPBpkrcVYu7EI9wnH8wXP8Yv7LxjRcQRMeNz7j5Jzk7HqMrNoKheuG/Gaoq3vGnkCDytDK9Z2toQRysDW13f1fWmM7OwEs07p6UBQEDBrliDLHpfCQuDrr2U/P9eKNTXNocCKz+djx44dYokRvL29GXtP+vfvL5Yw4ejRo4wN16rk6Ogo/DoqKgqAoCBuTSrdmsAJEBRwrHHqlKCWTVxcnLBNlYHTu672jZgyfoZaTRgoLEQrqmaWiS2bns2nHzHaROlyBDeFT5iF1/8aSh8AACAASURBVLmUpL5kP7cM+4oUTdeMuRGzLDsP1WXSZ5NKnik/qUJ9XLp0CZcvXxY+dnNzYxS0trCwwIcffih8/ODBAxw/flzhfanZNwkAhoaGjOVxqiZaUkI0yHNxcYGrq6vE11ZVVSE5OVn4mPaFvhuUsmDmdPxpjOrEnNJv3aw1FvVbhEX9FqGaX431Eeux5voavCpmjqgde3wMa4aukel6XEu/8ssafl20PPS02ad3pc2UZRTIPjpqYWABK0MrpBeIV8BOy09DeEo4BrUbJPO56oJtuWRReRH44Ms0A0kUKzwccHEBav9tatoUmDZN8A8AQkIEtZvu3mU/R0YGIEuWZK6sslzZ9tTRkSNHEBPzNrWwi4sLevRgz6zl4+ODFStWoLy8XLgUZunSpWox0ujs7IwdO3YAeJtZr2aZnqWlpdiM1LBhw7Bz504AguV68+fPR3x8vPD5mmV+qtCrVy+0adNGoec0ZMvBryKmpqZo3749kpKSAAiCW0XT5OmizfShSNl2Wqw94+Q1VOQWIu0v8WV6TW1bobm75KRIRk4dWdvzop/K3K/8+0mMNn0bC2jpNfyG+iYtjMFY91JVjbyYBJi4SE7Fn/8wRVndqrd79+7h8OHDwsdmZmacy1Q9PT0RGRkprO907tw5tGrVCi4uLgrrz82bN4Vf9+nTR2HnVZQePXoIl+bVsLCwwMcffyz1tY8ePRIWFtfQ0KASDu8Ihc84RWdGY/Rfo6Xua9LU0MTCDxbi3PRzrIFPYk4i596l2vR12EcouBIjqAsDXfZNs7mlkte0c9Vl4vJhxw9Z23+4/IPM5ygoL6jTEju24JAPvtq/N++ikhLgk0+ALVukH+vpCYSFAVwDZA8eyHZNrsHDBshyqxCVlZVISHhbl87IyAhTp07lPN7U1BRjx44VPi4vL1d6VipZ1Z5xqqioEKYhd3NzE9uLMmzYMGHyh9DQUBQXFwtvHpo1a6b02i6SmJqaokuXLgr9pw6FikXV7J0DBMsq2WrI1Jf1TGZ2PX5FFWI/+x0VOeIjGzbzR0s9n0GnNtDvwFzhkB+bhLKX0peG50U/RXEy8+9Ci+GKu0mXh/kg9nIdLw6HS33t6yvqW8Pp8ePHYmUGZs+eLcyiV5umpiZmzpwp9tnw5MkThfUlMTFRmGQBAAYOlL9WpLKJfm7WmDdvnkz7vWrq4wGC2aa6piIn6kXhgdMXZ78AH3xMPzaddSapNidLJzhYMEcvtTW10URbtlEmIx57buOHL9nrMADAptub4B/mL9P5lcVcnz1l6YOX3Hel5VXl2BG1Q67reNl7sbaHpYRh//39Ul9fXFEMjyAPzDwhoRAQB673hut7rKiuwNwzcxGSECL3tYhk69cDSUnA998DIoN8nAwMgHHj2J+TdYCeK+24yKovhlu3ABkG8xqEtrY2Fi1ahN69ewMQzChJK2jo5uaG9u3bw8DAAAsXLlSbUVQHBwdhMFRaWorY2FhcuXIFgPgyPUAQIA4YMACAYH/X+fPnhYFTzf8FUR7R/+Pc3Fz8888/Cr+GSZ8uMOjMnLmrnRRCs4kO2n4ygnEcm9aTBrO2x63YI/W1SZvYl4G19FRN4NTSk/33NmXrKZQ85x75yb0Th7zoBM7nVW3KlCmYNGkStLS0MGzYMNjY2Eg8vk2bNhg2bBi0tLTg5eUl00yLrMLDw8UeDx7M/vOjSs2bN2cMFNXMwEmSm5srNlusjt8bqRuFBk7HHh/D9VTBCGZybjIctzri6KOjEl9TVFGExDeJjHZHC0eZl3J1NGVfInDk0RHGLEl0ZjQ893vii5AvsCt6V51rRymCk6UTaz2jvTF7OWtTrbqySu7ZGvf27nBoyb60ZuaJmThw/wDna5+8foKBewbiRuoNBMYGyh1s2pqyF2wLig1itB2POw6HLQ7YHrkde+/tles6RLKMDOCXXwRfFxYCQ4cKAqkKKcv12WaWeDxA1qRqXPX6rlwBRJa2AxDMQi1cKMj4FxQkyOSnDrS1teHr64sFCxbInE1u5syZWLZsmVoVLGzSpInYDfnhw4eRni5YwiuagryGaNvx48eFe5y6d++u5J6SmnTQNf7++2+lXIetplNtracMgTZHmvDabD4fCw0d5gqSlK2nWPdN1ci5+QipLEV49dq25KwbpWzGvTrDpA9zaVVVUSlujV2OijfMrQBlL3Nwd+qPDdG9enFzc8M333yD0aOlzyQCwEcffYSvv/4aQ4YMUWg/Dhx4e+9hZWWFDz74QKHnV5TaNZr+/vtvqcXOjx8/LpwpNjMzE6ulJy8+n49Hjx4hPj6eUZScNDyF7XEqryrHN6HfiLW9KHiBiUcmom/rvpjlOAvu7d1hYywY3ajmVyM0MRTfXfoOeWXMegmTu02W+dpsM1YAkPAmAfPOzIOXvRceZz/GoQeHhIFdTf/OJ5yHh62HzNdSpGZNmsG+uT3uvxQvPJhZmIkR+0cgeGqwcDlfFb8Kq6+txo9X6vahvHLwSow5OIbRXlFdgWnHpiEwNhCf9voUrtauSMlNQXJuMk7EncDhh4fFkjmsurIKrZq1wlznuTJdt1sL9k3k+2L2waWVC2xNbXEz7Sb23tuL5Ny3myiPxx1HXlkejJqorlLq9u3sS8pSOfY6R0QAqzhymvj5Sc5cFxLCvp/o+XNmW3Ex+3W8vQGuBD/LlglqMtUoLBQUtt28Gfj8c0GqcQcHoGZFxoMHwK+/AmfOMM81erRsWfgAoF07wNgYqJ1RubxckBZ98WIgJwcIDgYOHRLPwhcYCPybCVst2NnZyXxsixbs2SxVzcnJCbdu3QIA/PnnnwAEiR7Y9gwNGzYM3333HQDg4MGDwnYKnJSvY8eOcHFxERYg/vvvv7FmzRqYmCi2qLu1jwcefbsDqOa+GWs3T3JSCFE8SzPYzB+DpABmoHd32o94dTESnZZMhX57wZI+fmUVnu89j0ffbge/krkcscNXEzjrRgFAwcMUvDjMDMheX41lPT556ynwLMRr6TR3c4LZQPZ7iE5Lp+HW6GWM9ryop7jQxRu233ih5XAXNLEwxauLkXjywz4UJUifjVAHHTp0kPlYbW1thQ8CJSUl4dKlt7XCvL291bbUi7OzM06cOCHMcPn69WsEBQVh1qxZrMdfvXpVbO/WmDFj6vy9xcTEYNq0acIMiO7u7jh69CijbAFpOBp8BYWvW+9uxbzgeYo4Fbq36I7IuZHQ0dSR6Xg++LD41QIvi9gz8kgysetEHJ54mPW5yIxI9Nrei9E+tftU7B8nfYmbLH688iOWhy1nfa6JVhPYt7AHT5uH+1n3paZoH99lPI56cc/wLfpnEdbeWFuv/gIAT5uHF1+/gKme9GJuT14/gd0m2W84RW0asQmf9f6sTq9VBBeXuhV9ZZOaCkjaRvHVV0BAQP2ucfUq0L8/sz0hAejIPikrNxMTICpKEBDJ6uOPBTNI8mrXTrC0UE3/ljZK27dvx9y54oMeX375JQJYfvj4fD5atGiB7GzxouR37txBr17Mz0WiWGvXrsWiRYuEj/39/YU1tRTp5qilyDoTwfqckVNHDIrcLtf5+BWVuOb2Nd5cu895jEHnNmhiYYqixHSUprEv6Tcb0AP9w34DJNROenE4DHcnyb5Xl43dDzPRefkMzucjPBbh5XnF/CHotHQauvzkq5BzNXYff/wxgkT+MMTExHAm3VEHiYmJWLt2rdiMT9euXTF27FhhJsy8vDwEBweLZSy0t7fHl19+Wefr9uvXT5jEp8ZHH32EkydP1vmcpH4UtlRvluMszO89v97nadakGU5NOSVz0AQAGtDA5y6f1+l65xLOqbSukK+TL5rqsC+DKKsqQ1RGFG6k3hALmjSgwZpQo5rPkfv5X78M/QUf96jf+mSeNg8nJ5+UKWgCgM5mnTHEpm7T+6eenKrT64g4W1tg717ZZ4kkCQqSL2gCgHl1HE9JSWGfhSN1x7bRufb+phoaGhpiackBwcizKjPqvU98fX3Fajr99ttvePlS/sFBaaxZajrVkJaCnI2Gjjb6HF/FmWUPEKQof305hjNo4rVujl4HlksMmhqKw+avoG0oeV8jgyb7aA9fwsze++T69etiQdOwYcPUOmgCBDN0tZfQPnr0CD/99BOWLVuGb7/9FosXLxYLmszMzODt7V3na1ZWVgpnnUWdOnUKdxQ1qkvkprBPJV0tXfwx4g/87fU3muvXrTpysybNcGjCIbQzbif3a79z/Q79rVmG2yUY1G4QIudGcqYzbwgWBhb435D/yfWan91/hmET5u78lNwUia/TgAb2jd2HZQOW1SkVeDvjdrg68yqGdRgm/WARu0bvgoWB7OmYNaCB2U6zOWcCifxmzBAsJaxrngJNTcHSvRGy7REX88EH8i+5s7MDQkMBykOgWD179hTL7KSpqQl3d3fO42uv7e/evTt0dGQf1CJ1Z2Jigvnz3w5GFhQUYOHChQq/juXoftAxZmZ41W6mjzYzuIMqSXTNjeB6ZQNajpD/A8egizUG3toMXiv25EkNTb+9FVxv/AFea9nva7r+5Mu616s0PZvl6PdLcXExY9Z73bp1KuqNfDw8PDBlyhTGsrtXr17hzZs3YrNRzZs3x+LFi+u1pE5bWxutWrVife6BrKlticIpfDhnXJdxSPRLxPze81kTH7DR0dTB1O5T8XD+wzrvN9LU0MT56edl2hvV37o/Tk85jTDvMM7EEg3pyz5fYt2wdaw1j0Q1a9IMGzw3YHG/xejRkjk68/DVQ1RUSy/Ot2rwKtyZcweOFszRZzadzDph3bB1eDj/IXpZyb9Ex9rIGldmXuFMUFFDS0ML07pPQ9zncdg+artK9ze9i7p2FQRPmzcD5nLck7i7A9euCfZE1ZW/P7BmDXd68hpdugA7dwL37wsSWBDF0tHREduk7OrqiqZNuTf+1w6c1H1U+F2zYMECsRuvwMBAnD9/XqHX0NDRRpsZzMEwax8PaDape5Cs1ZSHvsGr4RS4FLotjKUer2NqiK6r52BQ5HbwrNQjaKrRrJsNhjzcjQ5fT4SGNvdAq25zI7gcX4WOS6bCuFdnxvM5tx4rs5uNgp+fn3C/DgBMnz69URXUHjRoEL7++mvOkgyGhoaYMGEC/P39FbIPad++fZTGXM0obI8Tm9clr3E+4TxOxJ1gFGAFBAVxB7YbiLF2Y+WakZDmbvpd7IvZh6iMKLF2R0tHzHaazRp0qIOENwn439X/4Uz8GWEqd542D67WrhhuOxwf9/gYLZoqdtP5jdQb+Pvx37iVJtgwrqGhATM9M7Q0aImOph0xtstYdDCRfROpJHzwcSLuBI48PILneW+zHmhpamFYh2GY2XMmrAyZdUCI4pWWCjLbnT8vCFJqfwoYGQlmikaMEMz+KMqLF8D+/cDly4IEETUsLQXJLQYPVovVOYSojR07dmDOnDnCxx06dEBERASaN6/byg5VqCopQ+bJ63hxKAzlOeJ7dXXNjdDKaxAsRn2gkkK38qrILUR2+D3k3HqMoqR0lL/Mhb6NBSw+6ocWw3pBS59ucrns2bMHM2e+LWtibm6O6OhotaujJqukpCRkZmYiJycHxsbGsLa2RuvWrRWe5OL8+fOYPn262H7TGzdu4D//UU3GyfedUgMnQgghhNSPh4eH2ExTv379cPHiRTRpov6BBiEAcPnyZXh4eKBUJHXquXPnMHx43ZaDvm++//57YXIYExMTpKWlQV/aEg6iFDS2SwghhKixP//8Ey1bthQ+vn79Onx8fIR1YghRZ1FRURg7dqxY0LR06VIKmuSQkZEh/Przzz+noEmFaMaJEEIIUXPR0dEYPHgw8vLe1j309PTE0aNH6SaKqK2dO3fCz88PxcXFwrbp06dj3759alu3Sd3k5uaiTZs2KCwshImJCeLi4tS2VuD7gGacCCGEEDXn6OiIo0ePQlv7bRKhkJAQuLm5IZWrKjchKlJYWIhZs2Zh9uzZYkGTl5cX9uzZQ0GTHFavXo3CwkIAwIYNGyhoUjGacSKEEEIaiXPnzmHSpEnIz88Xtpmbm2Pz5s2YOHGiCntGiMC1a9cwa9YsPH36VKz9iy++wK+//gpdXV0V9azxCQ0NFS5p9PLywqFDh1TcI0KBEyGEENKI3Lt3D6NGjUJaWppYe3JyMtrJW6GaEAWbMWMGAgMDhY9btGiB7du3Y/To0SrsVeNz7tw5eHl5oaCgAPb29rhx4waaKaKSPakXWqpHCCGENCI9e/bEzZs3MX78eGHbF198QUETUQvjxo0Tfj1jxgxER0dT0FQH1dXVKCsrg6WlJc6cOUNBk5qgGSdCCCGkkQoNDcXKlSsRHBwMY2PphWYJUbaSkhJ4eHhgzZo16NOnj6q706idOnUKlpaW6N27t6q7Qv5FgRMhhBBCCCGESEFL9QghhBBCCCFECgqcCCGEEEIIIUQKCpwIIYQQQgghRAoKnAghhBBCCCFECgqcCCGEEEIIIUQKCpwIIYQQQgghRAoKnAghhBBCCCFECgqcCCGEEEIIIUQKCpwIIYQQQgghRAoKnAghhBBCCCFECgqcCCGEEEIIIUQKCpwIIYQQQgghRAoKnAghhBBCCCFECgqcCCGEEEIIIUQKCpwIIYQQQgghRAoKnAghhBBCCCFECgqcCCGEEEIIIUQKbVV3gBB1tXcvEBQk+/GTJgG+vortQ3Ex8McfwMWLQFUV0K8f8NlnQPPmir0OIYQQQgiRjAInQjg8fw5cuCD78S4uiu/DjBnA33+/fXzhAnDoEBARARgbK/56hBBCCCGEHS3VI0RNhYaKB0014uKAn39u+P4QQgghhLzPKHAiRE0lJ3M/FxvbcP0ghBBCCCHv6FK9l0UvcTPtJiIzIlFQVoD1w9erukvkX/Gv4xGZEYk7L+6gs3lnzHWeq+oucbK2Btzdme35+cDt28q/fo8edXtOnRUVAZGRwL17gn8bNwJNm6q6V4QQQggh0r0zgdOpJ6ew5e4WRGdEI6soS9g+pdsUFfaKAMCa62tw6skpxGbFoqC8QNi+beQ2FfZKOm9vwb/arl0DXF2Vf/3//AeYOBE4ckS83cQEWLxY+ddXlKdPgR9+EARKjx4B1dWCdltbCpoIIYQQ0ni8M4FT8NNgnEs4x2gfYzdGBb0honbf24247DhG+4SuE1TQm8ZlyxagWzfg7l2gpARwcgJGjwZMTVXdM9nFxrJnJxw1quH7QgghhBBSV+9M4JRbmsva3tGsYwP3hNTG9t4Y84xhqteI7v5VxMwM8PdXdS/qJ5f9VxPt2zdsPwghhBBC6uOdCZxySnJY29satW3gnpDa2AKnVoatVNATogo57L+aaN26YfuhaOHh4bgtstmtb9++GDBggAp7RAghhBBlemcCp7yyPEYbT5tHsxoqxgcfpZWljPY2Rm1U0BuiCnnMX00AQJtG/iNQWlqKxMRE4eP+/fursDeEEEIIUbYGC5xKK0tx7fk1JLxJQFZRFsz1zWFlaIVeVr3Qpln976DYZpysjazrfV5ZFFcU42LyRdx+cRs8bR7aGbeDfXN79LTo2SDXr6+iiiJce34NqXmpyCzMREllCXjaPHRv0R3DOgyDvo5+nc+dWZjJ2t66WSOfbniH8PmCTHfx8UBqKmBoCFhYCJI3KCJ7H9dSvcYeODVr1kzscYsWLVTUE0IIIYQ0BKUHTheTLyLgZgDOJ55HeVU56zE9LXpiXJdxWNB3AQx0DSSeb0fUDsw5PUema8e/jofGSg3O54u/K4aeth7n85EZkei1vRejfWDbgQj3CUdmYSbmBc9DcHwwKqorGMeZ65tjjN0YLOq3CB1NmXutttzdgvnB8xntIdNC4GHrwdmv+Nfx6LypM6N9fJfxOOp1lPN1tYUmhiLgVgAuJF3gfG/0tPUwvut4+PXxQy8r5v+FqGnHpuHA/QMyXXtn1E7sjNrJ+lwvq164M/uOTOd5V5w8CYyRMY+JuTnw6lX9r5mUBAQEAAcPAi9fsh/TsaMgicNXX0kPdFJSABsb2a/fsiX3c+fOAcOHy34uVagdOBkbG6uoJ5IVFRVh/XrxkgyzZ8+GhYWFXOfJzs7Gli1bhI/nzZsHc3NzhfTxfXb79m2cP39e+Hj8+PHo2rUrAKCwsBCHDx/G0aNH8fTpU7x48QLW1tbo3LkzBg8ejMmTJ8v9PhJCCKk7pQVOURlR8Dvnh2vPr0k99l7mPdzLvIdNtzdh1eBVmOMsW2CkSk9eP8HIAyOR8CaB85js4mzsjNqJP6P+hF9fP/zk9lO9Zm8U5WXRS3x29jMcfSQ9yCqpLEFQbBCCYoMw22k2/Af602xRI/fqFbBsGbBrF1BZKfnYp0+B9euBrVuBzz8Hvv8e0OMea3iv1A6cTExMVNQTyZo2bYp//vkHV69eFbbNnDlT7vNcuXIF/v9mKjExMcG3336rsD7KIyEhAQ8ePFDoOS0tLdGnTx+FnlNWd+/eFf6/AkDXrl3RtWtXBAcH45NPPkFWVpbY8U+ePMGTJ09w6tQp+Pv7Y9myZVi4cCE0NamePSGEKJtSAqfgp8GYcHgC694WSV4WvcTcM3MRlx2n1kVr0wvS0WdHH9Z9VWz44CPgZgA+6/0ZbE1tldw7yeKy4zA0cCjS8tPkfu2OqB04cP8ALnlfgksrFyX0jihbSopgJic+Xr7XFRcDa9YIajEdPw7oqz7+V7qCggJkZWXB1pb9d9bIyEj4ddOmTaGlpSXxXIaGhgrvo6x8fHzEAqdz587B19dXrnPcvHlT+LW7uzu0tVWzRTYpKQkhISEKPWf37t1VFjixWbt2LRYtWiT1uIKCAixevBjXrl3DgQMHYGAgecUGl7KyMqxduxZRUVFwcXHBggUL0KRJkzqdixBC3mUKH6JKL0jHlKNT5A6aRP128zd8d+k7BfZKsZ6+eSpz0FRjXJdxKg+aYrNi0Xdn3zoFTTWKKorgEeSBp2+eKrBnpCFUVwsK+sobNIkKDX1/6i9dvnwZa9euxdq1a/Hw4UPG86IzTlxB0ZMnT7BhwwYsWbIEhYWFSuurNJMmTRIL9Hbt2iX3Of755x/h156engrpF2G6cOGCMGhycHBAQEAALl26hJCQEPz+++8YOXIkdHR0xF5z+vRpTJ8+vU7Xq66uhqenJ5YvX47jx4/j22+/hYeHByqlTUcTQsh7SOFDhivCV6CgvECszaiJERb3X4w5znNgpmcGAEjKScLp+NM4+/QsQhNDGefp27ov6/ktDSzRr00/sbaiiiLcy7zHemx7E+5iMVoa3CPE8tDR1IGDhQMcLRxRUlmCC0kXGEkRvnVVzbKWGi+LXmLkgZGcAZ+TpRPcbNzQ26o3KqorEJcdh7NPzyIqI4pxbDW/mvUcduZ2jPcmvSAdybnJrMfW/CzU1qV5F2nfzjunc2fghx+Y7Xv3AiKJ2+rl77+BK1fE2zQ1gS++AObPBzp1ErTl5gJhYUBICPDXX0Dt+30XjslGHg9wd2e2X74MVNTaAmhkBPTuzd1XVa964/P5whmahIQEbNiwAdbW1vD09ISTkxMAQENDAwYGBigsLBQLSvh8PiIjIxEaGopnz54J28PDwzFy5MiG/Ub+1bRpU0yePBnbtm0DAEREROD+/fvo3r27TK9PSUnBvXuCz1hNTU2MHj1aaX2VxsTEBB06dFDoOS0tLRV6vvrYunUrAOC///0vVq9eLbYEz8PDA35+foiPj8e8efNw6dIl4XMnT55EUFCQ3AHU/v37ERYWJtYWHh6Ov/76Cx9//HE9vhNCCHn3KDxwOvLwCKNtg+cGzHCYIdbW3qQ9/Pr4wa+PH84lnIP3CW+8LBLsUJ/ZcyZGdWIf1h7ZaSRGdhK/+QhPCcfgvYMZx07uNlnpS/48bT2xb+w+mOu/3SRdWV2JNdfXYNmlZeCDjyE2Q+Bs6azUfkiz4PwCpOanMto1oIH1w9fjq75fMZ5bNXgVDtw/gJknZwqTR2hAA4cmHmJNdrF8wHIsH7BcrM0/zB+rrqxiHLtm6BrO9/h9ZGcHLF/ObA8LU1zgdJRlS9vcucDvv4u3GRsDY8cK/i1ZIpiluvbvVkVHR8E+JzYWFoDIpIQQ2wq27t3Zj1UXKSkpyM/PF2t7/vw5tm3bBgsLC4wYMQIuLi4wNDQUBk4VFRW4ceMGQkNDkZ2dzThnZGSkygInQLCvqSZwAoCdO3ciICBAptceO3ZM+PWwYcNgaqq6Mg+9e/dGb0lR9ztg4sSJWLNmDefznTp1wvnz5zFjxgz89ddfwvbly5dj0qRJjBkpSVJTmX8XJLUTQsj7TKFL9fLK8lhnNHS0JH+Ie9h6IHJOJGyMbdDOuB02jtgo13Vfl7xmbTfiGbG2K8pXfb/C2WlnxYImANDW1MZS16XYP34/AGBJ/yVK7Yc0z/Ke4dCDQ6zPrRu+jjVoqjG1+1QEjg2EBgTZCdcMXYPhHWRPd/am5A1ruzFPPTOQvctEJj+EpN1ftW8PXLwITJwoSAqxdy8gz9aHvDzBEsHaauVVUDs2Njb47bff4Ovri969e4vt98jMzMSuXbvw3Xffobi4GACQlpaGJUuW4MCBA2JBk5mZGdzc3LBw4UKxBACq0KdPH3Tr1k34eO/evSgrK5PptQcPHhR+PWnSJIX3jbylqamJn3/+Wepx2tra2Lx5s1hmw5SUFOzfv1+u640fPx48Hk+sjcfjYezYsXKdhxBC3gcKnXHS1dJlbd94ayOGdRjGuTQLENT18R/oD1tTWzTVaSrXdbOLmaO7ABgBjSINaDtA6mzWlG5TUFZZBvf2LOuXGtCOyB2o4lcx2j/q/BEW9F0g9fVe9l5YF7EOncw6YeEHC+W6Nlfg1Fy/uVznIfWny/LrefiwYNbp3+zHnK/z9weGDBHMFMnjNfuYBsy4PwrUBo/HE85uVFVVIS4uDvfu3UNsbCxyc3PxWuSbS09PF37dpk0bODg4wNHREa1boQV9fQAAIABJREFUq1cGyjlz5uDLL78EAOTl5eHQoUOYMWOGxNc8fPgQd+4IygPo6+tj3LhxSu/n+2zgwIEyL0U0NjbGvHnzsGrV21n9s2fPwsfHR+brde7cGX/99Re8vb2Rn58PIyMj7Nq1C126vH9LpgkhRBqFzjjpaeuxJkCISIuAxa8W+Oivj3D1+VXWmkcA4NPTB/2t+8t93bxS9n07LZtKKBRTT8sHLBfOwkji09NHaX2QVXhKOGv7ykErZT7Hj24/4s+P/pT72lx7qloaKO+9IewcHJhtmZmAvT0waBBw4gRQUMA8BgC6dRMEWPLK48ih0ryRxc1aWlqwt7fHtGnT8Msvv2Dp0qWMfTHOzs74+eefsWzZMowaNUrtgiYAmDFjhtjswp49e6S+ZseOHcKvJ02axEjDThSrf3/5/gbW3od0/fp1ua85ZswYZGRk4O7du0hPT6fgmBBCOCg8q95sp9ms7ZXVlTgdfxoDdg+Awf8M4LTNCZ+d/QzH446jsrp+2XsKy9mzVSlrOViLpi1UPoskq/Kqctx+cZvRbmNsg54WPWU+z9D2QzlnFCVhe280NTRh1ES5yygJk6TSPZcvC/Y0GRsDPXoAvr5AYCB34CMrrkRyalorVmbp6enIyMgQa3vw4AHKy9kLSasLIyMjTJgwQfg4LCwM8RLSLBYXF2P37t3Cx59++qlS+0cEM5by6Nixo1gR3PT0dLEZUFnp6+vD2dkZ+u9DrQFCCKkjhQdOX//nawxtP1TiMeVV5YjOjMbmO5sx7tA4tF7fGusj1oMPfp2uWVRRxNpuoqec1FyqTvQgj5TcFNYZPidLpwa5fnFFMaPNQNcAmhpUrLGhOTkB0rZOVFcD9+8Df/4JzJgBtGkDfPMNUCtPgsyKmW8/AEFWvcYqLi4OgYGBAAQ3mzV7fsrKyhAQEICSkhJVdk+q2sVvRWeUajtw4IAwScYHH3wAF66UikRh6jKj16NHD7HHbMlJCCGE1J/C7161NbURPC1YriVqWUVZ+Cb0G7jucuXcryQJ2815TV+UoTElNqidFr1GQ30PbO+Nst4XIt2SJcD27YJED7IoKADWrwecnYF/t7nIhStwUlHt1HrLzMzE5s2bUVUl2DM4ffp0uLm5wd7eHgDw5s0bbNq0CdVsGTHUxODBg9Gx49usmHv27EFF7Xzx/9q0aZPwa5ptahh1KSzcsqX40mcKnAghRDmUcvuio6mD3aN3Y2LXifjp6k+4kXpDptddT70Oh60OCPMOQyezTjJfj6vYrrJu0DU0pO9tUhdcQWVDKatkZu1SVP0sUjezZwOursC6dcCePYAsdS4TEgT7oA4elK8AbilHHezGGDgVFBQgICBAmInOyckJzs6C2Wdvb2/4+/ujtLQUCQkJ2Ldvn1wb9BuShoYGZs6ciaVLlwIQ3GQfO3aMkS3vwoULiImJASC4Mffy8mrwvrK5c+cOo+5QfXXo0AHjx49X6DkbUu308I3pbxQhhDQmSr19GdFxBEZ0HIHjcccRcDMAV55dkbocL70gHR5BHoiZFwNDXUOZrsN2cw6g3nun3gUtmrZgbc8pzWmQ67MFtWwZ/kjDsrMDduwQLMNbvRo4flz6crziYmDqVEERXUdH2a7DFTjJEqypk4qKCgQEBODNG0GWSAMDA0ybNk34vJGRESZOnChcwhcREYHWrVvDna0isBrw8fGBv78/Kv99I3bv3s0InP744w/h17NnzxZLya5KOTk5SFRUcbN/NfZ9PbWXh5qouoI0IYS8oxpko8lYu7EI9wnH8wXP8Yv7LxjRcQRMeNwf7Mm5yVh1mVk0lQvXjXhN0dZ3jTyBh5WhFWs7W8IIZWDr67v6vjRGdnaCWaf0dCAoCJg1S5Blj0thIfD117Kfn2vFmprnUBDD5/OxY8cOsYKg3t7eMDAwEDuuf//+6Ny5s/Dx0aNH8ejRowbrpzwsLS0xSmTq8J9//sEzkUJfSUlJOHXqFADB0rE5c+Y0eB/fV1zLJiXJzc0Veyxa24kQQojiKGXG6XT8aYzqxFzP07pZayzqtwiL+i1CNb8a6yPWY831NXhV/Ipx7LHHx7BmKHfldFFcS7/yy+q4o72B6GmzbzSRNlOWUZAh8XlRFgYWsDK0QnqBeJaltPw0hKeEY1C7QTKfqy7YlksWlReBD75M6dyJYoWHAy4uQO0B9qZNgWnTBP8AICREULvp7l32c2RkALWycbPS4liVyZVtTx0dOXJEuGQNAFxcXBib8Wv4+PhgxYoVKC8vB5/Px9atW7F06VKxrGfqwsfHB8ePHwcAVFdXY+fOncJ6QBs3bhTu0xo3bpzcmd6UqVevXgrvj6GhbKsbGsJrruJnEogG6EZGRmjVqpUiu0QIIeRfCg+cojOjMfqv0bg26xo+aPMB53GaGppY+MFCuNm4wWWHC2NmIjEnEaWVpeBp8zjO8Ja+DvsyC67ECOrCQNeAtT23NJe1vQZXXSYuH3b8EDuimJmzfrj8g8yBU0F5AfR19OXen8QWHPLBR2ZhJiwNZLjzJgpTUgJ88gkwf75giZ4knp6CfVDOzgBbtuoHD2QLnLhWQGVlSX+tOqisrERCQoLwsZGREaZOncp5vKmpKcaOHYtDhw4BAMrLy/Hs2TO1DJxGjhwJS0tLYVr1P//8EytXrkRRURF27dolPG5uXQp4KZGpqSljT8+7RPTnTRZpaWl48OCB8PHw4cNpjxMhhCiJwpfqfXH2C/DBx/Rj01lnkmpzsnSCgwWzMqe2pjaaaMu2pt6Ix57b+OHLh5yv2XR7E/zD/GU6v7KY67Mvp3jw8gFrOyBY5sYWBEniZc++qTssJQz77++X+vriimJ4BHlg5gkJhYA4cL03XN9jRXUF5p6Zi5CEELmvRSRbvx5ISgK+/x64eVP68QYGAFcdTFkH6LnSjsfFcb/m1i2gVk1PldHW1saiRYvQu3dvAIJZGj0pKQnd3NzQvn17GBgYYOHChejTp09DdFVumpqa+OSTT4SPMzIycObMGezatUuYgrxLly5wc3NTVRffS/Imvvj999/FHg8dKrkcCCGEkLpTaOB07PExXE8VVC1Pzk2G41ZHHH10VOJriiqKkPiGudHX0cJR5qVcHU07srYfeXSEMZMVnRkNz/2e+CLkC+yK3lXn2lGK4GTpxFrPaG/MXs7aVKuurJJ7Js29vTscWjKDUwCYeWImDtw/wPnaJ6+fYOCegbiRegOBsYFyB5u2pras7UGxQYy243HH4bDFAdsjt2Pvvb1yXYdIlpEB/PKL4OvCQmDoUEEgJW07xQOW+JbHA7p2le26tuxvP65cAVJSxNuysoCFCwUzXUFBgkx+6kBbWxu+vr5YsGABusr4jc+cORPLli2DLdd/gJrw9fUVe7xr1y5s2LBB+Pirr75q6C6992JiYnD16lWZjn348CG2bNkifGxsbIzJkyfX6boFBQW4c+cOChvTOlpCCGlgCluqV15Vjm9Cxdf/vCh4gYlHJqJv676Y5TgL7u3dYWNsAwCo5lcjNDEU3136DnlleYzzTe4m+4c/24wVACS8ScC8M/PgZe+Fx9mPcejBIWFgV9O/8wnn4WHrIfO1FKlZk2awb26P+y/vi7VnFmZixP4RCJ4aLFzOV8Wvwuprq/HjlR/rdK2Vg1dizMExjPaK6gpMOzYNgbGB+LTXp3C1dkVKbgqSc5NxIu4EDj88LJbMYdWVVWjVrBXmOsu2fKdbi26s7fti9sGllQtsTW1xM+0m9t7bi+TcZOHzx+OOI68sD0ZNVFcpdft29iVlIjkCxEREAKs4cpr4+QGS6lqGhLDvJ3r+nNlWXMx+HW9vwNqa/fzLlglqMtUoLBQs19u8Gfj8c0GqcQcHoGaFz4MHwK+/AmfOMM81erTk70VUu3aAsTFQa+86yssFadEXLwZycoDgYODQIfEsfIGBwMqVsl2nIdjZ2cl8bIsW7Nks1U3btm0xdOhQ/PPPPwCAkydPCp8zMzPD9OnTVdW199r8+fNx/fp1icVwMzIyMGHCBBSLFEubNWsWI2mJLP773/8iICAAFRUV4PF42Lt3r9qknyeEEHWiwefzFTLlsvXuVswLnqeIU6F7i+6InBsJHU0dmY7ngw+LXy3wsuil3Nea2HUiDk88/H/27jssqmtrA/jL0IsCigI27L1hwa5YMGKJgn7YUKyJJbbkXjVGTSxRo1GjwRI1dr2xJPaOYEFRURQVCyJWRFREBenl+2PCgWHOMDMwMAO8v+fhyZw9pyziAGedvffaou/diLyBFhtayLUPaTQEu9yVD3FTxcILCzHHb47oe8b6xmhQvgFMDExwJ+oOYpNjRffL1L9ef+z3UNzDN/3MdCy7vCxf8QKAiYEJIr6NQBlT5fMMHkY/RF1v1W84s/Pu6Y2JLSfm6VhNcHLK26KvYl68ACpVUvz+1KnAqlX5u8bFi0D79vLtYWFALfFOWbVZWwNBQdKESFXDhkl7kNRVtap0aCGnaxSs3bt3y5RWzzRt2jSsWLFCCxGVLGvXrsXEifK/55o1a4ZNmzbBMUft/7S0NPzzzz+YMWMGnjzJethUu3ZtXL9+Xe1CF8ePH0evXr3k2q9evQonJye1zkVEVNxpbKjeKMdRmNByQr7PU9q4NA4PPqxy0gQAetDDN07f5Ol6J8NOanVdoTHNxsDc0Fz0vaS0JARFBuHyi8sySZMe9ESLNKRnKKj9/K9fXH7BsMb5mzxiYmCCQ4MOqZQ0AUCdsnXQtVrXPF3r8MPDeTqOZNWsCWzbpnovUW527lQvaQKA8Xl8nvL0qXgvHGlW//795cpXSyQS0Zt5KniTJ0+GmZkZgoKC0KxZMzRu3BguLi5wcXFBp06dUKZMGXh4eMgkTaVKlcKuXbvyVB3wuoIfskWLFuX5eyAiKq40ljgZ6RthTc81+Nvjb5QzK5enc5Q2Lo09A/agqlVVtY/9ocMPaF9F5HF7LpyrOuPG1zfUrhSnSXYWdljUVb0/UIu7LUYpY/k/kE8/PM31OD3oYbvbdszuODtPpcCrWlXFxZEX0b1Gd7WO29x3M+wsVK8qpgc9jG02VmFPIKlv+HDpUMK81imQSKRD93r2VP/Ytm3VH3JXty5w+jTwb00GKkDGxsZyQ/JcXV1Ro0YNLUVUsjVr1gwHDhyA5b+VVe7cuQMfHx/4+PjgwoULQuGOTKVKlcLRo0fRooX86AhVVFLQFX5XbIIjEVEJp/Gqeu713PF4ymNMaDlBtPCBGEOJIYY0GoKQCSF5nm8k0ZPglOcpleZGta/SHkcGH4Gfl5/CwhKFaXKryVjefbnomkfZlTYujdWuqzGj3Qw0tpVfRybkbQhS0pUvnrig8wIEfhUIRztHpfsCQO2ytbG8+3KETAhBiwrq/3GuYlkFF0ZeUFigIpO+nj6GNhqKB988wIY+G7Q6v6k4ql9fmjytXQuosz5mt26Av7/yEua5mTsXWLpUcXnyTPXqAZs2AXfuSAtYUOEYNWqUzPa4ceO0FAkBQPfu3XHz5k107txZ4T7W1taYOnUq7t27h44dO+b5WiNGjJBZDJmIiBTT2BwnMdEJ0TgVdgoHHxyUW4AVkC6I26lqJ7jVdVOrR0KZ66+uY3vwdgRFBsm0O9o7YmyzsaJJhy4Iex+GRRcX4WjoUaGUu4mBCTpU6YAvan6BYY2Hoby5ZiedX35xGX/f/xtXX14FAOjp6aGsaVnYWtiiVplacKvnhhrWmnnynIEMHHxwEPtC9uH5x6yqB/oSfXSv0R0jm45EhVIVNHItyl1iorSy3alT0iQl528BS0tpT1HPntLeH02JiAB27QLOn5cWiMhkby8tbtG5s7R3iwqfv78/UlOli2936tSJawEVkpxznLZu3QovLy9h+969e9i/fz/Cw8Px7t07VK5cGS1btsTAgQNhbi4+zFtdiYmJGD58OPbt2ye09erVC0fFqsMQEZVgBZo4ERERkWLKEqfCkpSUhNKlSyP53ycaixYtwvfff1/ocRAR6TI+2yUiIirh3r59KyRNpUuXxvi8VnUhIirGmDgRERGVcJs2bRJeT5o0CVZWVlqMhohINzFxIiIiKsFevnwJb29vAECTJk0we/ZsLUdERKSbmDgRERGVUCkpKRg5ciSio6NhaGiILVu2wMTERNthERHpJCZOREREJVBCQgIGDBgAHx8fAMCGDRvg6KjaMhVERCUREyciIqISKnNB3ZkzZ2LEiBHaDYaISMexHDkREZGWXLt2DadOnRK2+/Tpg6ZNmxba9ePj47Fq1SrMnDmTa3cRESnBxImIiIiIiEgJDtUjIiIiIiJSgokTERERERGREkyciIiIiIiIlGDiREREREREpAQTJyIiIiIiIiWYOBERERERESnBxImIiIiIiEgJJk5ERERERERKMHEiIiIiIiJSgokTERERERGREkyciIiIiIiIlGDiREREREREpAQTJyIiIiIiIiWYOBERERERESnBxImIiIiIiEgJJk5ERERERERKMHEiIiIiIiJSgokTERERERGREgbaDkBdj2Mew+uAl+h7K75YAaeKToUSx7OPz7D88nIERQbBSN8Ifev2xTdO30BfT1+t89yIvIEpJ6aovH+9cvWwsc9GdcOlHN69ewcbGxtthyH4+PEjLC0ttR0GERERESlQ5BKnuOQ4XHpxSa69mX2zQkuaohOi0XFLRzz/+Fxo83vqB98nvjg06JBa54pJiBH9fhRJSktS6/wky9/fHzNmzIC5uTlOnz6t7XAE//d//wd7e3ssWbIE9vb22g6HiIiIiHIocomTIrXK1Cq0ay2+uFgmacp0+OFhHHxwEP3q9iu0WEg179+/x5gxY3DgwAGh7erVq2jVqpUWo5L6+PEj/Pz8kJqaioMHD2LBggWYPHmytsMqUCEhIQgKCsLz58/x/PlzREREIClJ+lDAyMgIx44d03KERERERLKKTeJUmJ58eKLwvZuvbzJx0jE3b95E//798eSJ7L/bL7/8gn/++UdLUWU5ceIEUlNTAQCfPn3ClClTcPr0aezYsQPW1tZajk6zHj16hOnTp+PgwYMK9zEzMyvEiIiIiIhUw+IQedDEtonC9xztHNU6l7WpNdpVbif6Rfl38OBBtG3bViZpcnNzw5s3b3QiaQKAbt26YcyYMTJtx44dQ5MmTXDz5k0tRaV5x48fR4sWLXJNmoiIiIh0lV5GRkaGtoNQR3BUMJqubyrXPrDBQPw14K9CiSE+JR7VV1VH1OcomfY2ldrg8ujLGruOwXwDpGWkybS1qNACgWMDNXaN4uzEiRPo27cvUlJSAAASiQTe3t4YP368liMT5+Pjg+HDhyMyMlJos7W1xblz51C3bl0tRpZ/9+7dQ5s2bfDp0yehbcSIEWjbti2qVq0KQ0NDoV0ikaBjx47aCJOIiIhIIQ7VywMzQzMcHXIUu+/sxvVX12EgMYBTRSdMblW856UUJefPn4e7u7uQNJmammLv3r3o3bu3liNTrFu3brhx4wb69++PgIAAAEBUVBRcXV1x4cIFVK5cWcsR5t2sWbOEpEkikeDYsWPo0aOHlqMiIiIiUh0TpzxqUaEFWlRooe0wSER0dDS8vLyQmJgIADAxMcHRo0fRpUsXLUemnL29Pc6dOwcPDw8cOiSt0Pj06VP06dMH/v7+sLCw0HKE6gsPDxe+FwDw8vJi0kRERERFDuc4UbGSkZGBIUOG4NmzZwAAQ0ND7N+/v0gkTZmMjIzw119/wdnZWWgLDg7GsGHDUMRG1gIA/Pz8ZLZHjx6tpUiIiIiI8o6JExUrW7dulVmfaebMmejVq5cWI8obExMTHDlyBDVr1hTaDh48iBUrVmgxqrx5+PChzLaDg4OWIiEiIiLKu2I7VC82ORbnn57H3Td3YWJggro2dVHXpi4crBygBz1th6czUtJTEBgRiPCYcLz89BISPQmqWlVFY9vGqGtTtAoSJCUlYfbs2cJ29erV8cMPP2gxovyxsLDAmjVr8MUXXwhtCxcuxOjRo2FlZaXFyNQTHx8vvJZIJKhQoYIWoyEiIiLKm3wnTnP85mDhhYVy7V5NvLC131a1zrUxaCO+OvKVTJse9JA4OxFG+kYqnePph6eYcnIKjj86jtT0VLn3a5apid9df0ePmqrNsZh4fCLWBq5Vad9etXrh6JCjKu2rbSfDTmLZ5WXwf+6P5LRk0X3sLezxdYuvMaPdDJgYmBRyhOr77bff8OrVK2F7yZIlMDY2Vvs8nz9/luvZGTt2LOzs7NQ6z7t377Bu3Tphe/z48bCxsVHrHN27d4eXlxe2bdsGAPjw4QNWrlyJefPmqXUebcpcowqQJk4SCTu6iYiIqOjJd+KkaN2iUY6j8ntqAICdhZ3KSdP+e/sx/MBwJKQmKNwn7H0YXHe5YuUXKzG19VSNxFiUpKanwm2PG46GKk/wIuMi8dO5n7Dt1jYcGHQg1/WrdMHGjRuF19WqVUP//v3zdB5zc3OcOXMGFy9eFNpGjhyp9nkuXLiAuXPnAgCsra3x/fff5ymeefPmYffu3UKFwFWrVmHatGlFptfJwCDr10xqaipSUlJkyo8TERERFQX5fvTbzL6ZaHtEbIRcW2h0KHzCfYSvDMhOdE9LT5M7xsFKtfkQl19chsc+j1yTpuymnZqG049PK9+xGMlABob+M1SlpCm7Jx+eoO2fbXHx+UXlO2vJlStX8PjxY2F76tSp+erZGDFihMz2yZMn8xRTpm7duskkEOpwcHDAuHHjhO2PHz9i586deTqXNhgZyT74yKx2SERERFSU5DtxqmpVFZbGlnLtD949kGubfGIyXHa4CF/Br4Nl3hcbMuZgqVri9OLTC7lETJmZPjPV2r+om+07G3tD9oq+V82qGtpVbofWlVqLzgGLT4nHwH0DEZMYU9Bh5sm+ffuE1xKJBJ6envk638CBA2FpmfW53rx5s9rnOHPmjPDa1dU1X/FMnz5dZnvTpk35Ol9hyjlcMq8JJBEREZE2aWSyQSPbRnJtj6IfybXdiLwhs33+2XmZbbHeIlV7nLKrYlkF63uvx5lhZ3Bo0CG0qthKdL+br28i7H1YrudyremKWR1myXzNbF/0Eq7DDw9j0cVFcu2Wxpbw7umNsMlh8B/lj4DRAbg57iaa2zeX2zcyLhL/Of2fwghXbb6+vsLrjh07okyZMvk6n7m5OQYNGiRsBwQE4M6dOyof//TpU9y6dQuANJHr27dvvuKpVKmSzDmCg4Nx7dq1fJ2zsCQnZz0QsbGxgampqRajISIiIsobjSROTe2ayrXlTEiefniKd/HvZNouPb8ksx2XHCd3nmpW1dSKZXbH2QibHIavm3+NbtW74cs6X8JvhB9aVmgpuv+JsBO5nq937d74ucvPMl8LOi9QKyZdMMNnhlybvYU9gscHY2LLiZDoZX0Umtg2wfmR50XnNO0I3oGnH54WZKhq+/z5M+7evStsu7i4aOS8Oec1qdPL888//wivu3fvnu9EDpAfPnjp0iXxHXXMmzdvhNfVqqn380xERESkKzSSOIkViMiZOAW8DJDb58KzCzLbYolTjTI1VI7j2zbfYkHnBTCUyE48NzUwxbzO4lXIrr+6rvL5i6pTj0+JDp38xeUXhUMhzQ3Nsc1tm1x7SnoK1l9fr/EY8yMoKEimclv9+vU1ct5WrVqhYcOGwva2bduQlJSk0rF//fWX8HrgwIEaiadz584y21evXtXIeQtaYGCg8Dq/QxaJiIiItEUziZO9fOIUkxiD9wnvhe1rEfLDiqI+R+FxTNaE/viUeLl9apetrVIMEj1JrlXyXKq7wEAiP7ciPCZcpfMXZbtu75JrszaxxqCGg0T2ztLEtgkalZcfhnnphW71dORcYDV7spNfX32VVR7/48eP2LNnj9JjQkJChGTBzMwM7u7uGonF0tIS9erVE7azJyS66ty5czL/PsOHD9diNERERER5p5k5TuUbiSYl2Xs5AiPEb/Ky9zrlHMpnrG+MKpZVVI6hcunKCt83kBigqlVVufaPiR9VOn9RdvbJWbm2NpXbyPXMiWlZUX6I4/VX15Geka6R2DTh/fv3MtuaXGB1+PDhMDHJWsNq69atSo/JXhZ94MCBKF26tMbiado0a1hseHg40tLkK1HqisDAQIwdO1bYnj59OmrUUL0HmYiIiEiXaKS8lYHEAPXL1cftqNsy7Q+jH6Jt5bZIz0jHzdc3RY+98OwCRjaVziWJiouSea9GmRqiFd7EVCpdSek+pY3lb2A/JX1S6fxF1eOYx3gV+0qu/VXsK/zg+4PS4++9vSfXlpiaiKjPUbC3sNdIjPn18aNs8mtmZqaxc1taWmLAgAFC+W8/Pz+Ehoaidm3xntD4+Hhs2bJF2M5eRlwTypUrJ7P94cMHlC1bVqPXyKuwsDD873//Q0ZGBoKDg2Xmebm7u2Px4sVajI6IiIgofzRWF7ixbWO5xCk0OhSA9OY7+zA8fT19pGVIn5RnLxDx5vMbmePrlK2j8vUtjCyU7pO9AEImXeo5KQgvP70Ubb/1+hZuvb6V5/O++fxGZxKn2NhY4bW1tbXGzz9y5EiZdZM2btyIZcuWie67e/dufPokTcbbtm0LJycnjcaSs8hEdHS0ziROjx8/Fhb8zWRnZ4fNmzdzbhMREREVeRoZqgeIV9bLTJyyF4Yw1jdGr9q9hO1H7x8hOiEagHTOU3aqzm8ixd5+flsg5xUr5KEthoZZQw6zJ1Ga0rlzZ9SqVUvY3rp1K1JSUkT39fb2Fl5rurcJgFwpb1WLVWjL69evsXjx4iJTyIKIiIhIEY0lTmLr/mRW1ss+v6mZfTN0dOgos5/vE1+kpqfKDZurV64eKH9S0sVv8PNLlR6+wmJlZSW8Tk1NFXp8NEVPT0+mNPm7d+9khqFl8vHxQXCwdFFnW1tbeHh4aDQOQH4+V/bvXdtatmwJPz8/+Pr6YunSpcKwwotXFnwFAAAgAElEQVQXL8LV1RWhoaFajpCIiIgo7zQ2VE+siEBmcYjAV1mJU+tKrdHJoZPMfheeXRBdM6h+Oc2UlS7JbMxsRNtrlamF8ubl83zeiqUq5vlYTbO0tJTZfvv2rUYLMgDSNZTmzp0rlD3fsmWLXJnxNWvWCK/Hjh0LY2NjjcYAyCdOujJMD5AOI3R2dgYg7aXz8vJCnz59cO3aNcTExGDIkCG4fr34l/8nIiKi4kljiZO5oTmqWVXDkw9PhLbktGSEx4Tj7pusxUnbVWmHZvbNYG5ojs8pnwFI5zn1rdNX7pwNyjXQVHgllqLEaWjjofix04+FHE3ByFlFLyQkROPV2+zt7dGnTx8cOHAAAHDmzBk8e/YMDg7SdbDCw8Nx+PBhAICBgYFMGXNNevr0qfC6VKlSGi2EoWnly5fHihUr0L59ewDAjRs3cOnSJbRr107LkRERERGpT2ND9QBpgYic9oTsQWp61uKknRw6QaInQetKrYW24KhgmeQKAKpYVoGZoe7eFBYVdcrWgb6evlz71ZfFZ86Jo6PsOmI3b4pXcMyvESNGCK/T09OxadMmYfv3339Herq00Ii7uzsqV1ZcGj8/rly5Irxu1apVgVxDk9q1ayeT2O7du1eL0RARERHlnUYTpyZ28sPtdt/ZLbyubl1d6AFpX6W90J6ekY5twdtkjmNhCM0wMzRDm8pt5NpPhJ3AjcgbWohI82rUqCFTpvvGjYL5vnr37g17+6xKgn/++SfS09MRGxuLzZs3C+1ff/11gVz/8ePHMsUvOnXqlMveuiP7gsT37smXtyciIiIqCjSaOIlV1svek9SqYtYT8uyJEwC50ti1ytQCaUbPWj1F28ccHoMMZCg9PjktGbN9ZyMhNUHToWlM69ZZPZhnzpyRW9tJEyQSCUaPHi1sR0ZG4ujRo9i8ebNQkKJevXro0qWLxq8NAOfOnZPZ7ty5c4FcR9OyJ7WvX7/WYiREREREeafRxKlFhRa5vp+956NdlXaiQ8gysTCE5oxrMU60Ct6t17ew+GLui5K+T3iP3rt74+eLP6Pnrp5ITE0sqDDzpW/frDlyiYmJOHToUIFcZ8yYMTLbmzdvxurVq4XtqVOnFsh1AekaUZkqVKiAtm3bFti1NMnAIGsqZVRUVC57EhEREekujRWHAIDKpSvD0tgSH5PEn/a3q5w1KdzUwBTN7JvJVNzLTqz3ShtWXV0ltzCvokVzH0Y/xA++P8i0SfQkWNB5gcLzHw09KrPOlbLrRHyKkLtGpgH1B8DRzlGu3drEGt84fYMl/kvk3vvB9wfEJsdiVodZKGVUSmh/Hfca++/tx7zz8/Au/h0A4NzTc/jyf1/i6JCjMNI3Uvg9aYObmxvGjRsnVL3bvHkzhg8frvHrODg4wMXFBWfOnAEAmQStbNmy8PT01Pg1AWnxCV9fX2Hby8sLenp6BXItTUtIyOqpzJwHRkRERFTUaDRxAqQJz/ln5+XajfWN5ZKhtpXbKkycHO3lEwBtWH99vVBWXZmw92FYdHGRTJu+nn6uidOJsBNYG7hW5Xgi4yLlrpGpVplaookTAMzvPB/nnp7DlZdX5N5b4r8EKwJWoIltExhIDPDs4zO8in0lep4z4WewxH8J5naaq3LMhaFMmTJwdXXFkSNHAADnz5/H2bNn0bVrV41fa8SIEULilN3w4cMLrMrdjz/KVkAcNGhQgVynIMTHxwuvcy7gS0RERFRUaHSoHqC4p6ht5baQ6MlerlNV8cntNaxrwNzQXNOhlWiGEkMcGnRI4dyx5LRkBL4KRMDLAIVJEwB0qdYFM9vPLKgw82Xy5Mky23PnFkxy179/f9jYyJZ5l0gkmDhxYoFc79KlS9i5c6ew3b17dzRuLF/BUldl73HS5fLpRERERLkptMSpVSX50skdHTqqdQ7Kn/Lm5XFt7DWZIZPq8GjgoZPD9DJ169ZNpkjE5cuXZUqGa4qxsbHckDxXV1eNrx0FSHtrclbpW758ucavU5DY40RERETFgcYTJ0VD7MRu1sualhUtO97Mvpmmw6J/WZlY4cLIC9jhtgN1ytZR6Zg2ldrg/Ijz2DNgD0wNdPvG96effpLZnj59eoFUchs1apTM9rhx4zR+DQCYMmUKQkJChG1PT0+Z8t5FQUZGVuVGiUTjv3KIiIiICoVeRva7GipxHkY/xOUXl3H3zV1EfIrAm89vYGliCTsLO9QpWwdDGg1BefPy2g5TLZ6enti1a5ew3atXLxw+fFjjN+3+/v5CMYpOnTppvFjD1q1bMXLkSGHbxsYGN2/eRKVKlTR6nYLWo0cPnDp1CgBQrVo1hIeHazkiIiIiIvUxcaJi5/3792jcuDEiIiKEtm+//bZIDXE7f/48evTogcTErPLvJ0+exBdffKHFqPImeyIrkUjw4cMHlCpVSslRRERERLqF42ao2ClTpgy2bNki08O0YsUKrF2revVCbQoKCoKbm5tM0jRr1qwimTQBQLNmWUNv09PT4efnp8VoiIiIiPKGiRMVSy4uLti4caNM28SJE+XKeuuaTZs2oUOHDoiJiRHaPD09sXDhQi1GlT/dunWT2Z47d67M90dERERUFOj/lHM2PVEx4ejoCIlEgnPnzglt58+fx9OnT9GjRw8YGGh8GbM8i4uLw7hx4zB//nykpKQI7R4eHtixY0eRLqpga2uLK1eu4PHjxwCAqKgo7N27F1ZWVmjQoAH09fW1HCERERGRcpzjRMXeokWL8MMPP8i0NWrUCDt27ECTJk20FFUWf39/jBo1Co8ePZJpnzRpEn799VcYGelm+Xd13LhxAx06dJBZ0wkALCws4OjoCGNjY6HN0tIS+/fvL+wQiYiIiHLFxIlKhJ07d2L06NFITk4W2mrVqoWHDx9qvBqeuoYPH44dO3YI2+XLl8eGDRvQt29fLUaleRcvXkT//v3x9u3bXPezs7NDZGRkIUVFREREpJqiO/6HSA2enp44d+6cTA/Tzz//rPWkCQDc3d2F18OHD8fNmzeLXdIEAB06dMC9e/fw9ddfo379+jAxMdF2SEREREQqY48TlShpaWlYu3Yt/P39sWfPHm2HAwBISEhAjx49sHTpUrRq1Urb4WjFmzdvEBERgY8fP8LQ0BDt2skvmE1ERESkTUyciIiIiIiIlOBQPSIiIiIiIiWYOBERERERESnBxImIiIiIiEgJJk5ERERERERKMHEiIiIiIiJSgokTERERERGREkyciIiIiIiIlGDiREREREREpAQTJyIiIiIiIiWYOBERERERESnBxImIiIiIiEgJJk5ERERERERKMHEiIiIiIiJSgokTERERERGREkyciIiIiIiIlGDiREREREREpAQTJyIiIiIiIiWYOBERERERESlhoO0AiIjUtW0bsHOn6vsPHAiMGaPZGOLjgTVrgLNngbQ0oF07YOJEoFw5zV6HiIiIdAMTJyIqcp4/B3x8VN/fyUnzMQwfDvz9d9a2jw+wZw8QEABYWWn+ekRERKRdHKpHRKSm06dlk6ZMDx4AixcXfjxERERU8Jg4ERGp6ckTxe/dvl14cRAREVHh4VA9KlSh0aG4EXkDgRGBqGNTB183/1rbIRGA1PRU3Hx9Ezde3UBQZBC8mnqhXeV22g5LoSpVgG7d5Ns/fQKuXSv46zdunLf3dNnbt8D168CtW0BsLLBokbYjIgBITU1FSEgIgoOD0b17d9jZ2Wk7JCKiPHv//j2uX7+O5ORk9O7dW9vhqI2JExW4pZeW4vDDw7gddRuxybFC+x+9/9BiVJSanoqxR8biZuRN3H93H8lpycJ7M9rP0GJkynl5Sb9y8vcHOnQo+Ou3aQP83/8B+/bJtltbAzN0+3+djBMngI0bgaAg4NmzrPZRo7QXE2Vxd3fHsWPHkJycDENDQ7x9+1bbIREpFB8fD1NTU+jp6Wk7FNJBp0+fxujRo/Hy5UsAwIwZM5g4EYnZcmsLHrx7INc+oP4ALURDmWISY7D11la59vrl6qOGdY3CD6iIWbcOaNhQ2kuTkAA0awb07QuUKaPtyFR36hRw4IB8exH8W1YsBQQEIDlZ+kCjTp06sLS01HJERIrduXMHp0+fRr9+/dCoUSNth0M6JiwsTEiaAKBp06ZajCbvmDhRgfuQ+EGuzcrECmVMi9AdZjH0PuG9aDuTJtWULQvMnavtKPInJka8vQY/AjrhzZs3wuuKFStqMRIi1bx8+RLe3t6oVq0aBg4ciGrVqmk7JNIRHz7I3gsW1d9pTJyowIklThVLFc0fmOJEUeJUqXSlQo6EtOWD/I8mAKBy5cKNQ9N27NiByMhIYdvDwwNVq1bVXkB58OnTJ6SnpwvbRfUmg0qmJ0+eYMmSJWjYsCHc3d35+SXE5HhSV6lS0bzXYOJEBSoDGUhMTZRrr2xZxO/MioGYBPHuhiqWVQo5EtKWjx/l20qVks7VKspiYmLw+PFjYbt06dJajCZvcj6dLao3GVRylC9fHqVKlUJsbNZc5rt37+Lu3bto2bIl3NzcULZsWS1GSNr0MdsfHIlEgspF9AkdEydCTGIMLj67iPCYcMQmx8LOwg6VSldC+yrtUcqoVL7O/TrutWh7YfVqxKfE4+yTs7gWcQ0mBiaoalUVDco1QFO7ojG29nXca1yNuIqITxGI+hyF1PRUWJlYobl9czhXdYZEL+8rCsQkMnHSdUlJ0gV1w8OBN28AGxvAzg5wdAQ08QBXbKhe9er5P6+2lSqV9XtLX18fZYrSxLN/5Xw6yyf2pOuqVauGxYsX49y5czh16pRMAhUYGIigoCC0adMGX375JefrlUDZHwZVqFABBgZFMwUpmlFTvqWmp2LH7R1Yf309AiMCkYEMuX0MJAboUKUDhjcZDq+mXtBD7pVyhv4zFLvv7Fbp+puCNmFT0CbR91pUaIHAsYG5Hn8j8gZabGgh197JoRPOjTiH13GvMf7YeBwLPYaU9BS5/WzMbNCvbj9MbzcdtcrUknt/0P5B2BOyR649ZU4KDCSKf2zWXV+HCccmyLWvdl2NSU6Tcv2eMmUgA+sC12F78HZcjbiqcD97C3sMazIMk1tNVjr0scrKKnjx6YVK1x/6z1AM/Weo6HvftvkWy7svV+k8xcWhQ0C/fqrta2MjLeudX+fPA2vXAkePAvHx4vu0aSONa+JEwNw89/Nt2waMGKHatYODgdyKYiUkACYmqp1LW7L3MBWFG7QVK1bg8+fPMm3ZJ1EDwIULFxAVFaXwHHPmzCmQ2Eqqu3fv4kC2yinGxsaYPn262ue5fv06Tpw4AQAwNzfHt99+q7EYdZGhoSFcXFzg7OwMPz8/nDp1CnFxcQCAtLQ0+Pv74+rVq3B2dkbPnj1hZmam5Yhz5+vri0uXLgnbAwcORO3atYXtsLAwrFy5EpcvX8bTp09hbm6Ohg0bokmTJpgwYQIcHBzyfO3Xr1/j4MGD8Pf3x/379/H8+XOkpaWhbt26cHJyQs+ePeHi4qJSFcPk5GQsX74cqampAKQ9Pt999x1MVPxlfv/+fezfv1/Y7tSpEzp27Ci6b/bPfHZ37twRXmdkZGDBggUKr9ehQwc4OzurFFthY+JUAu27tw8zzszAkw+5rOIJaXLl99QPfk/9sCJgBdb0WoMOVQqh1nM+PYx+iN67eyPsfZjCfd7Fv8OmoE34M+hPTGk9BT93+Rlmhtr/BX791XWMPjwat6OUr6IaGReJpZeWYs21NZjbaS4mOk2EuaGSO2jSacHBwH//C5w5o3zfgADpl7c3MH++6olRSZA9cSoKw/RWrlwplyjltGvXrlzf14XE6erVqzJzyzShYcOGqFmzpkbPqYqKFStiyZIliP/3yUW9evXylDjt2rULv/32GwCgb9++xT5xymRoaIju3bvD2dkZvr6+OHPmjJBApaSk4MyZM/D390e3bt3QvXt3GBkZaTlicefPn8f8+fOF7WbNmqF27dpITk7Gf//7X3h7e8vMRfzw4QMiIiJw6tQpeHt7Y8uWLfDw8FDrmklJSfjll1+wbNky4f9ZdgEBAQgICMCqVatQp04dLF++HL169cr1nJn/f+dmq2gUHR2NFStWKI0nNTUVXl5eCAyUPtC2tbXFxIkTFe4fFBQkcx0xERERue4zf/58Jk6kG2b7zsbPF39W+7g7b+6gy7Yu2DNgD9zruRdAZJrxKvYVWm1shY9JIpM3RGQgA6uurMLElhNRs0zh/3HO7uCDgxi0fxCS0pLUOu5zymfM8JmBP2/+icujL6OsKceQF0WnTwMDBkgXn1XHixfAyJFAaGjJWbT22bNnMDc3h42Njej72XuZrKyscj3Xx48fi0SvVFEQGBgo81RZE8zMzLSSOFlbW8PDwwNbt24FIH3iHhoaKtPboIorV64Ir7t27arJEIsEIyMj9OjRA507dxYSqMze1YSEBBw5cgTnzp2Dq6srnJ2doa+vr+WIlXv79i0GDBiACxcu5LpffHw8Bg4cCDMzM5XXK4qNjYW7uzt8fHxk2ps2bSr8vgsJCREeUDx8+BC9e/fGhg0bMHbs2FzPPWPGDJw8eVKIe+XKlejbty86deqU63G//PKLkDQBgLe3t84Pf/b398eGDRugr6+Pr7/+Gq1bt9bYuZk4lSBHQo/kKWnKlJqeCo99Hjgy5Ahca7pqMDLNefT+kdrHuNdz13rStPXWVow8NDJf5wiNDoXrTldcGHkBJgY6PpaKZLx+DQwZon7SlN3ixYCpKaADHQ8F7u+//8ajR4/QvHlz9OnTB7a2tjLvZ5/jlP11pvT0dFy9ehVnzpxBRkYGfvzxxwKPOTfTpk2TG6p3/fp1HD58WNgeMWIEqheHCWhFiJeXl5A4AcCff/6JX375ReXjo6Ojce3aNWG7b9++mgyvSDE2Noarqyu6dOkCHx8f+Pj4CL15sbGx2Lt3L3x8fNCnTx+0adNGZxfRTU9Ph6enp5B8ODg4YMKECXBycgIgHVK7cuVKmfk848aNw4MHD2BhYZHruVNTU9GvXz/4+voKbS4uLpg9e7bMsLikpCTs2LED8+bNE3qqv/rqK1SuXBk9evRQeH6JRIKdO3fC0dER0dHRAKSf8Zs3b8JaQUWg+/fvy/S4DRw4EAMG5L4GZ7NmzWSOybRs2TJh3lv16tUxIpdhEh3ysZL98ePH0bdvX2FY4s6dO3HgwAGNLbbLxKmEyEAG/nP6P3LtNcvUxJyOc+DRwAMmBibIQAYCIwJxIuwE9t/bj7tv7srsb25kjoblG4peo65NXbSr3E6m7VXsK9EhgXVt6irsGalXrp6q35ZShhJDNLFrAkc7RySkJsAn3EeuYMX3Hb7X2PXy4tzTcxh7RPGTItearmhVqRWa2jVFVFwU7r65i4MPDorOWUpJTxGdr+ZU0Umu6MP9d/dFS5K3rtQa+nriT/2qW5e8G7c6daRD4XLatg3IVrgtXxYtAv79OyYoVw6YOVM6BC/z4d7Tp8DJk9KvQ4fkz9Oypfj57eyAbt1k2z5/lg71y6latdzXcZLkvR6JRkRFReHhw4cApD0c169fR5MmTdC7d2+hSlP24XnZe5ySkpJw/vx5+Pr6yhRfePToEWrVkp/rWFjEhm8tXrxYJnEaN24cWrVqVZhhqc3e3l64GdYURTd0hcHZ2Rm1atXCo0fSB3I7duzAwoULYWhoqNLxR44cEYZxtWjRAlWqsPCOsbExevXqha5du8LHxwdnz54VPjPv37/Htm3bcOrUKfTr1w+Ojo5ajlber7/+KiRNEyZMwOLFi2V+3zg7O2P8+PFo166d8LmJiIjAvn37MHJk7g9H58+fL5M0LV68GDNnzpTbz9jYGGPGjEHbtm3RqVMnvHv3DgAwbNgwPHr0KNde9sqVK2PVqlXw9PQEIO29HzNmDP7++2+5fTOH6GUuwm1ra4u1a9fm+j0A0s96ixbyc9B/+ukn4XWDBg0KbHjxlClThKQJkH4f06ZNY+JE6rn1+hZCo0Pl2v28/GQq3OlBD04VneBU0QlzO83FskvLMNt3tlBgwbunNyqXFi8hOafjHMzpKPuDMNdvLhZckJ8AuNRlKfrU7pOfb0kp15qu2O62HTZmWcN5UtNTsfTSUsz2nY0MZKBrta5obt+8QOPITXpGOrwOeiE1PVXuPWsTaxwafEh0Xtkq11WYdHwS1gSuEdrKmpbFkcFHYGpgKrf/fo/9cm2dtnbChWfyQw3ODj+rE/O9dEXduuK9OH5+mkuc/vpLvm3VKmDwYNm2qlWBceOkX2fPSofovfg3f54wAVD0sPGLL6Rf2V28CIjN7R00SLeH/N2+LTv/LyMjA7du3cKtW7dQt25d9OnTB/b29sL7VlZW+PjxI3x8fHDx4kUkJCTInfPGjRtaTZzEvH8v+1BD0bBEXdK/f39th6BxY8eOFeY2RUZG4tChQ0qfuGc6lO3phru77g5x1wYTExP07t0bXbt2xZkzZ+Dr6yv8bL5+/Rrr169H5cqV4eHhofbwyIKUmTT973//w6BBg0T3KVeuHH799VeZHsZ//vkn18QpLCwMP/+cNSJo8uTJoklTdvXr18eGDRuEz9a7d++wfv16pccNHToUx48fx+7du4XYdu7cKSRTmRYtWiQzRO+3337L8xC9nOvSFVRZ+tTUVDx79kyu/dmzZ0hNTdVIJT8mTiXEkxjxQhBG+oonZOpBD9PbTUerSq3QfUd39KndB8MaD1PruooWWbUyyX3eQX5NbT0VK79YKdduIDHArA6zUM26Gob8PQQz2+f+C6ag7b6zG88/PpdrN9I3wvGhx9G6kvi4XD3owbunNzKQgbWBa2Gkb4SjQ46qVeZdbB0nQ4khk6ZC9umTeCU+ZQ+1u3YFrlyR9iRlZADLlql3XbFS5ACg67UUXFxc0Lx5c9y4cQN37txBWFgY0tLSAAAPHjzAgwcPZObE+Pv7Y/fu3cI+mRwcHNCkSRM0b94cdnZ2hfo9qCI6RxdkuXLltBRJyTZy5EjMmjVLeIK9efNmlRKnmJgYHDt2TNgeNky9v50FYf/+/bhx40a+z2NhYYEffvhBAxEBpqam+PLLL+Hi4oIzZ87Ax8cHSUnSeb4vXrzA8uXLMWTIEKXzcArT7NmzFSZNmfr06SPTW3n9+vVc91+2bJmQWNja2sokUblxc3ODm5ubUAFSlcQJANatW4dLly4JScbUqVPRqVMnodc+ODhYJoZ+/fop/Z5zk9krlqmgHgQZGBjA09MTW7ZskWkfOnSoxsqfM3EqIRQlSPPPz8fKHithKFF8l9bJoRMmt5qMWR1mqX1dRYlTObOCuwno6NARK77IvVLM4IaDkZSahG7Vu+W6X0H748Yfou1Lui1RmDRlt8xlGdZfX48/ev+h0v7Zif3blDHV7QmfxZGiYlLr1wNdumQN0xNToQLwww/StZfUreqbc2hgpiLQsYEyZcrAxcUFLi4uSExMRHBwMIKDgxESEoLExESEhWVV1HzyRPrQSF9fH7Vq1ULTpk3h6OiotGiEtuVcLLIoVAcsjmxsbODm5oZ9+/YBAE6cOIHnz58rHXa3e/dupKRIR2o4OzvrxALGcXFxcj2ZeZH5fWlSZgLVoUMHLF68WObzr+nhn/lRoUIFlZJGPT09ODk5CYnT69evERMTIzr0NCkpCTt37hS2PT09lc6Hym7QoEFC4vTs2TPcu3cP9evXz/WY0qVLY9u2bejSpQvS09MRHR0NT09PnDt3DmlpaTJD9GxsbPDHH+L3KqrKuaB3QS6E/Ntvv+HNmzfCg4vevXsLlS01gYlTCeFoLz5WeE3gGmwP3o5hTYZhXItxaFS+keh+y1zUfJz9L0XV7WwtbEXbNWFOxzlK15wCgBFNRxRYDKpISE3A1Zfy6zSVNy+PiS0Vl/rMzszQDEcGH0HPWj3Vvv6npE9ybeXM+VS7sJmYAA0bAndlpxPi7FnA3l66VtOUKdL5S2K9UEPFl9xS6pP8Pz8A6dyqosTExAStWrVCq1atkJaWhpCQEGzYsEHm5q5fv35wdnaGqan8MFZdlb0Mcfny5bUYCXl5eQmJEyAtEjFv3rxcj1mzJmsY9fDhwwsstuIiIyMDAQEBOHDgAD7l+OWkSz+37u7uKq99lHMNpw8fPogmTpcuXZJJDvv0UW8aQ7NmzWS2r1y5ojRxAqRrMc2cOROL/h2bnVnY4tOnTwgODhb2W7lyZb5/B+Usq16QD4JKly6No0ePIjQ0FBKJRONVOZk4lRAVS1VEz1o9cfzRcbn3YpNjsTZwLdYGrkUpo1JoatcUHRw6wLWmK9pXaZ+v68Yly69BINGTwNK4YMr/ljcvr/VeJFVden5JdHHeHjV75DqEMqe8JE2AtIx5TgX170K5GzMGmDpVvj05Gdi7V/plago4OgKtWwOdO0vnM+Vn5MFn+X9+AEBRrsytr6+P69evyz0RDwwMLHKloLNX2dOlG8eSyNXVFQ4ODsKwpm3btuHHH3+EREGllIsXL+L+/fsApE/WhwwZUmix5qZevXowNjbO93lUTRxU9fjxY+zevVtuLbOyZcvi//7v/3SqSIQ6seSs6JkzIcyUfYFdQD4RUibnGlivXr1S+dgff/wRPj4+QvXH2bNnC0MlAelQwJxzn/IiZ9VQTX+GxBTU3DgmTiXIH73/QPvN7fHso/zEuUyxybG4+PwiLj6/iEUXF6FR+UZY0m1Jnm/O41Pku9gtjCwg0SuY0lzaLPSgLkWl01tUkK9Go2kJqQlIz0iXay/ouWckbuJEwNcXyFZETU5CAnD5svRrxQrAwUG6WO6ECUBeKvcqSpx0fARbro4dO4arV6W9uNWqVUOlSpVw8eJFRERE4I8//sCkSZO0HKHqEhMThdeFcZNBikkkEowYMULoZXr27BmOHTumsGdg48aNwuuvvvpKI8mKJmT2zOqK9+/fi867ylz7qUePHjq3rpM6c3NyJjSKhjhGRETIbOe3N+at2GN8ykcAACAASURBVKRZBYyMjLB9+3a0aNECcXFxMsVzbGxssH79+nzFkin77zMAOvMzkRdaLixLhalS6Uq4PPoyWlZQULNYxJ03d9Brdy9MODYBaRlpyg/IQSxxMpAUXL5elG78o+KiRNsLY56R2L8LULD/NqSYgQGwfz8wfrzqxzx7BnzzDdC9u+L5SrkRKS4nxFIUZV/3yMjICGPGjMGAAQOExW3v3r0rzAMoCrLfaBTlm4ziYuTIkTI9TDknn2eKiorCnj17AEgTrvHq/FCXEElJSThw4ADmzJkjlzS1bNkSCxcuRK9evXQuaQJQIDFpYt5ZdurOQatTpw6WiVQX+vXXXzU2TLg4JU5F9E8k5VWFUhUQMCYA6wLXYeWVlQiPCVfpuHXX1+He23s4PvS4WlXXklKT5NoUrRGkCbq6aJ6YhFQFd66Fce0U8WszcdIeQ0Ng7VrAzQ1YuhTIsXC8Qj4+gJMTcOoUoM5Q7hx/xwRFMXEKCwvD5s2bhW13d3fhyfDw4cPx+++/AwBOnjyJihUrCotV6rLsw2UUDQnTNX///Tcea6pG/786d+6MlooWKCtEDg4O6N69O06ePAlAukZTZGSkTOl7QDq3KXNSfb9+/YQqZZQ1j+ngwYMyxR8AoFKlSvD09ES1atW0FJ32ZP9Zt7S0zPfnvWnTpmofI/Y7Jntc+ZXzXEXld5qYIvgnkvJLX08f3zh9g3EtxmH11dXYFLQJ99/dV3rc+WfnMfzAcNE1gRRJTJW/O8tLz1VxpKiyYHR8HroP1CT27wJAdD0pKlwuLtKvo0eBNWuA06eBdPlRlTLCw4EvvwSuXQNULcakKHFKLWIfgbdv38Lb21soN16rVi107txZeL9hw4ZwcnISxvBv3boVtra2chO3dU32p8YFUcWsIERGRmo8ccrLTWBBGTFihJA4paamYsuWLZg1K6vabFJSEjZs2CBsjxs3rtBj1FWK5jFZWFigX79+aN++fZF68KlJltkmllpbW+PMmTOFev3Hjx/ju+++k2v/7rvv4OzsrJG5Qqk5/rAUld9pYopuykf5ZiAxwLdtvsW9ifcQ9HUQZrafiQ5VOsBYX3EX6t/3/8aJsBMqX0MsSUpOS85TvEVBWrrqSWGFUhVE269FXNNUOAopSl6L879NUdO7N3DihHSB299+A/r3B2xzKUZ5/760p0pVaQo+qslF6CPw+fNnrFq1ShiXb2xsjNGjR8vtN3jwYKG8b1paGn7//Xe58ri6JvuNRs6bDtKO7D2ZgDQJz8jIELZ37dqFqCjpEOx69eqhW7eiUaioIL1//x4bNmzA0qVLZZImfX19dOnSBYsWLUKHDh1KbNIEQGZR2efPn8t8pgpaeno6xowZI1S9MzU1heG/5Vvj4uIwePBgjfQ85VxHryj/TmOPUwmSmp6KU49PoVetXnLvOdo5wtFOWi3mQ+IHzPadjT9u/CHaA7E3ZC9ca7qqdE2xoV+fkz8jAxkqlQzXFmMD8eQxJT0l1+FsUZ/F5y2JUVSx8NDDQ/ic8hnmhuYqn0tdir6H2OTYArsm5e7kSWmlvJwqVJCWI58yRdrztGaNNEHK8eAWAPDPP8D8+apdT9GQvNgi8hFISUnB6tWrZSZCe3h4iJb7NTMzw7Bhw7Bu3ToAQGxsLFavXo2ZM2fKTeDWFdlvnnKW8tVV/fr103j1QtvcnhYUMkNDQ3h5eWH58uUAgEePHsHHxwcuLi4AgNWrVwv7TpgwoUQnA0lJSTh+/Dh8fHzkbpLr16+PwYMHs8z+v7L36KSnpyMoKAjNmxdOoatly5bh3LlzwvacOXOQkZEhrFUVFBSE77//HitW5L42pjI5k0FdWptLXUycShDva9745dIvuDfxHqxN5G8uMlmZWMG7pzdqlqmJaaemyb1/7+09la9paiBfRjcDGXgd9xr2FvYiR+gGCyPx8U4xCTEwLaW4NPCFZxdUvkYVyyqoU7YOHkY/lGmPS47DioAVmNNxjkrn+Zj0Ue0y4ormqSkqWEEF6/ZtoFcvacW83IpeSSTApElAx47SdZ1yjnYICQGSkgBV5t0qWjA3qoh8BN6+fSuTNDVo0ADt2ytePiFz4dubN28CkK6p8ubNG51YmFRM9oRO13vHMunq/0tN+uqrr4TECZAWiXBxcYGvr6+w9k3p0qVL7NpNuc1jKleuHAYPHowGDRpoKTrd1LFjR5nt06dPF0ridPv2bcydO1fYdnJywn//+19IJBIcOXIEV65cASBdx6lXr175eihimGMRwpyfjaKEQ/VKiJjEGPx07ie8jnsNrwNeoqWoc/qq+Vei7aWMSom2i7E0Eb+hv/vmrmh7SnoKvj76tVrDAQtCWVPxVa3vvLmj8Jg7b+6olTgBQP/6/UXbl/gvQWh0qNLjQ6NDUWt1LWwL3qbWdRUlzuEx4QqLVkTGRaLr9q4KFzWmvPvuO2lv0siRwLt3yvdv0kRaECInIyPplyoUVbx98EDxMRs3Av+ulah1FSpUwNy5c1GpUiWYmZnBy8tL6TGenp4wMzNDpUqVhGN1lUW2yWqxsbFqlRimglO7dm106tRJ2D5w4ADevXuHtWvXCm1eXl4FusCnroqIiMDPP/+Mbdu2ydwYGxsbw83NDfPmzWPSJKJhw4YyRTH+/PNPjRZmEJOcnIxhw4YJhUyMjIywZcsWGBgYQCKRYNeuXTJzr4YNG4Z3qvxxUsDcXHYEzYsXL/J8Lm1j4lRCzPWbK9zwHgk9gvab2yM4KjjXY269viXa3tRO9cm6NcuIl/naeXunXNuBBwfQZF0TbLixAdtuqZcIaFrzCuJPe7yveYu2p2ek45vj36h9nSmtpogudhufEo+u27vi5uubCo899ugY2m9uj7fxbzH60GicenxK5euaGJiIzrFKy0jDnrt7ZNoSUxOx8spKNFrbCL5PfLH7zm6Vr0PKHTmSVUHv/n3pAreHDuV+THw8ECqSV7durfqaTjVqiLfv2yc//+n2bcDdHfjqK2DzZqAQh+DnysrKCt9//z0mTZok80deEQsLC0yaNAnff/89rHR8waqcxSsuX76spUgop+xJemJiIhYvXixT6r6kFoW4ffu23A1xq1at8PPPP+vkmky65D//+Y/w+vHjx1i8eHGBXm/OnDm4ffu2sD1r1izUr19f2K5evbrM8LzIyMh89aLm/H0WEBCQ53OpIiMjA/fu3UNoaKjG54xxqF4J8ODdA6wNXCvTFvAyAI7rHTGo4SC413NH1+pdhV6I+JR47A3Zi/+c/o/Y6eDZWPVVpBuWbyjavj14O5wqOqFmmZq48vIKtt3ahicfngjvH3hwIE9D0DSlfZX2kOhJ5HrmjoYexXenv8Py7llDNT4kfsBXR75Su7cJAMqbl8f4FuOx6uoqufdefnoJp41OGNF0BIY1Hoamdk0RHBWMh+8eYk/IHviEZ9WrTstIQ/89/XF+5HmVFwFuUK4BXsXKrzA+6+wsWBhZwFDfED7hPth5eyc+JGYNFdoevB3jW2h3bZING8SHlCl6iBUQACxYIP7elCmKe18AaYGG69fl258/l2+Ljxe/jpcXUKWKfHtyMjB9umzb48dAv35Aly7A8OGAs7N0sVtA2ivl5wf8+CMg1gHh4aH4+8ipofiPJu7eBb79VloWPTRUmkhlL43++LF0sV4NT2XJMwMDA1SvXl3l/dXZV5saNmyIY8eOCdu//vorXF1dRedkpaamYuHChahatSpGjBhRiFGWTB4eHpg2bZrQq5L9BvOLL76QuQEtqRwcHODp6YkqYr/4SM6YMWOwatUqhP77RGzevHlo1KgR+vcXH5WSXUZGBsaNG4fmzZvjq6/ERwpld/nyZfz666/CdtOmTYU5TdmNGjUKx44dwz///AMAOHHiBH777TdMnTpV1W9LUK9ePRgaGgrV9AIDA3H48GF8+eWXovvfvXsXM2fOxOHDh9UuXR4cHIyhQ4ciJCQEANCtWzfs379fpYdrqtDLKMzyHaQVg/8ejL/u/qWRc41vMR5re61VvuO/HkY/RF3vunm6lndPb0xsOVH0vRuRN9BiQwu59iGNhmCX+648XS8nlx0uMslJdpbGlqhXrh7S0tMQHBWstBrdatfVmOQ0SfS9tIw0dNzSEZdf5P+JsqOdI4K+DlJpX+9r3ph0QjwmZR5Pfozq1tq7AXVyAgIDNXOuFy+A3EZsTZ0KrJLPa9Vy8SIgNv1m82ZApAhcnjg5Af7+0vWgVJGRIU3I8jJiYtgwYPt29Y8j1Z09e1auKluvXr2wdu1a4WY0PDwc27Ztw7Zt2/Ds2TM4OTnh6tWr2gi3xBk/fjzWr18v137gwAH069dPCxFp34kTJ+Dr6ws3Nze0bdtW2+FoxI8//oj52SruHD16FL16yRfYErNixQqZMt+BgYFo0UL+viWTr6+vzDwiiUSCZcuW4ZtvvlFYxObOnTuYOXMmjh8/DkBaoGTSJMV/1z9//oymTZsiLCwMgHTu0bVr1xSW/Y+JiUHDhg3x6pX0IaupqSmuXbuGhoqevOWiS5cu8PPzE7bNzMzg7e0NLy8vSCQSpKSk4ODBg9i5cyeOHz+O1NRUtf5/Z2rXrp1cD/2XX36JQ8qGcqiIQ/VKgOXdl6Nd5Xb5Pk8T2yZY5areHWSdsnXQtVreHk0ffng4T8dpypRWUxS+9zHpI668vILAV4EySZPYsDsAuc4p09fTx+HBh4WqhnlVs0xNHBx0UOX9hzYeChszG+U7itBUIl7SeXpKe3fyy8ZG2jOkatIESIf0faP+6FIAwPHjisuZk2Y4OzvLLdR77NgxODg4QE9PD3p6eqhRowbmz5+PZ8+eAQCuXbuGR48eaSPcEkesZ69GjRoKn6CXBI0bN8bChQuLTdJU2Lp06YIff/xR2E5PT8d3332HihUrwsPDAz/99BMWLFiABQsWYM6cOWjfvj0aN24sJE2ANBnJzbRp04SkCQBmzJiR61pp1tbW2Lp1q7CdkJCAwYMHI1HRQoC5yJnQxcfHY9SoUdDX14eenh6MjIzg4eGBw4cPC5UY9+7dq9Y1UlNThTX7sjt8+DACNfS0lYlTCVChVAVcGHkBszvOVnhjr0zmTbmhRI07s39t7rsZdhZ2Ku+vBz2MbTYWe/9PvR8YTetduzfc67mrvL+xvjGWuSwTfe9JzBPR9kxlTcvi4qiLoqXiVeFc1RlXxlxBFUvVh0VYm1hju9v2XMur52RhZIGlLksxs/3MvIRJORgZAcuXA4cP597rlRsbG+Cvv8SHAirzn/9IF9tVh6srcPUqwOkKBUtfXx8bN25E2bLihWpysrW1xaFDh1CrVq0CjowA6dydnE/dx44dq/awouKkYsWKMFalpCcp9NNPP2HPnj0ypdrfvXuHffv2Yd68eZg7dy7mzp2LhQsX4tKlS8I+5cuXx6FDh0TXsct0+vRpbNy4UdiuX78+5sxRXr3XxcUFkydPFrbv3r2LadPkKy4r4+bmhlGjRqm8/+DBg/Hbb7+pdQ0DAwNUrFhR9L27d8WLkqmr5P6ElzASPQkWdF6A+xPvw6W66ndKViZWmNFuBm6Pv42qVlXzdO0qllVwYeQFNLFtkut++nr6GNpoKB588wAb+mzQ2vym7P4a8BeGNBqidL8a1jVwfOhxjHIcJVrKXFGhjezMDc1xdMhR7O6/G7bmytcu0YMe2lRqgz0D9sDPy09hJcDcuNZ0xcFBB1HePPf1NEobl8bM9jPxfNpz/LftfyHR468OTerTR1oY4ttvFa+vlJOJiXSYX3Bw3ucbSSTSQhSqTItxcZGuNXX8uOLCEqRZjRs3hp+fH1q3bq1wn7Zt22LdunV49OhRie7t0Ibs80nMzMwwduxYLUZDxYWHhwcePXqEBQsWoF69ernua21tDS8vL9y5cyfXn/+YmBiMHDlS2JZIJNiyZYvK69j98ssvqFs3a9rF+vXrZXq6VLVx40YsWLAApqbiy7rY2Nhg5MiRCAgIwO7du0XX5VNm+/btMDExUfs4VXGOUwkV8jYEp8JOwfeJr8zEfwDQ09ND/XL10a16N/Sp3QcmBpr5AGYgAwcfHMS+kH14/jFrZr2+RB/da3THyKYjRSu96QKfcB+svroaPuE+QrnusqZl0b1Gd3xR8wsMaTQkT71xiiSnJeP4o+P4+/7fQm+VgcQA5c3Lw9bCFo3KN0L/+v3zlCyJ+ZzyGTuCd+BI6BF8TMwqI2thZIGhjYeif73+Ctd+Is16/x44e1ZabS8yUv79ihWl6zj17g1ocv3ImzeB//1P+t/smjaVJlasIqxdz58/x4MHD/Do0SOkpqaiVq1aaNWqlco9UqR5cXFxuP5v5ZjSpUujWbNmWo6IiqPo6GjcvHkTL1++RFRUFEqVKgV7e3vUqFEDjRo1KpILLSckJCAkJAShoaF4+fIl7O3tUbduXTRv3lwjvbanTp2Cp6enTAn1y5cvo02bNvk+NxMnIiIiIiIqNn766SfMmzcPgLRn7uXLl0rngKmC422IiIiIiKjYiMw2ZOObb77RSNIEsMeJiIiIiIiKiQ8fPqBy5cqIi4uDtbU1Hjx4IFNwIz/Y40RERERERMXCkiVLEBcXB0C6tpWmkiaAPU5ERERERFQMnD59Gl988QUAaYXCPXv2aPT8TJyIiIiIiKhIO3nyJDw8PBAbG4sGDRrg8uXLKF26tEavwaF6RERERERUpKWnpyMpKQn29vY4evSoxpMmgD1ORERERERUDBw+fBj29vZo2bJlgZyfiRMREREREZESHKpHRERERESkBBMnIiIiIiIiJZg4ERERERERKcHEiYiIiIiISAkmTkREREREREowcSIiIiIiIlKCiRMREREREZESTJyIiIiIiIiUYOJERERERESkBBMnIiIiIiIiJZg4ERERERERKcHEiYiIiIiISAkmTkREREREREowcSIiIiIiIlKCiRMREREREZESTJyIiIiIiIiUYOJERERERESkBBMnIiIiIiIiJZg4ERERERERKcHEiYiIiIiISAkmTkREREREREowcSIiIiIiIlKCiRMRUR6kpqYiODgY27dvx+vXr7UdDhERERUwA20HQKRrUlNTkZ6eDiMjI22HQjrK3d0dx44dQ3JyMgwNDfH27Vtth0REREQFjD1ORDnExcVh1qxZ8PX1RVpamrbDIR0UEBCA5ORkAECdOnVgaWmp5YiIiIiooDFxIhIRGxuLPXv2YM6cOQgICEBGRoa2QyId8ubNG+F1xYoVtRgJERERFRYmTkS5iI6OxtatWzFv3jzcunVL2+GQDvj06RPS09OFbSZOREREJQMTJ6IcTExM5G6GIyMjsW7dOixYsAAPHjzQUmSkCz58+CCzXalSJS1FQkRERIWJiRNRDiYmJpg7dy7GjRsnl0C9fPkSK1euxMqVK/HixQstRUjaFBMTI7PNHiciIqKSQS+DkzeKtc+fP2PFihUybWPHjoWdnZ1a53n37h3WrVsnbI8fPx42NjYaiVHX3bhxA0ePHsWrV6/k3nN0dISbmxtsbW21EJnqwsPDsWvXLmG7devWcHFxEbZjYmKwfv16HDt2DOHh4YiPj0eTJk1Qv/7/t3fncVXX+R7H3yDGoqKmZjgY41qaC66U3jH3rSxTRx/dEqHUccax0ltqmVs2eq+ak5XXsVywMm25moZmilnmwoBbqS2iuAa5oKlJIAj3D4bvnMN2zsEDP+C8no+Hj8fv++N3vr8Pgj7O+3yXX3M99thj6tKlS7HvnZaWpk8//VTbt2/XoUOHdOLECV25ckUNGzZUq1at1L9/fz3yyCMKCAhwqr/t27dr586dhX4vjixZssSsUfLx8dHzzz8vH5+CNxhdsGCBrl+/bnfu7Nmzeuutt0z78ccf1913313o/aZOnep0bSjawoULdfXqVUnSnXfeqVGjRt1Sfzt37tT27dslSf7+/nruueduuUYAQMVFcPIAXbp00ddff23aZ86ccXl60dq1azV48GBJUs2aNXX+/PlC32xWRNnZ2SZAJScn233N29tbYWFhGjhwoGrUqGFRhUXbtm2bevbsadoTJ07U//zP/0iSli5dqueffz7fFDRbzz33nObOnSsvLy+X7vvee+/ppZde0qlTp4q8rlatWpo4caImTpzosM/Lly+rRYsWJshWr15dhw4dUv369R2+dv369Ro4cKBpv/LKK5oyZUqh19evX19nz5512G9RysJ/sRs3blRGRoZb++zatWup/74/+OCD2rRpkyRpwIAB2rBhwy31N3fuXE2aNEmS1LZtW+3bt++WawQAVFye887Xg0VERNgFp82bN2vkyJEu9REbG2uOe/bs6VGhSZK8vLzUvn17tWvXTvHx8dq4caN56GlWVpb27Nmj+Ph4denSRQ8++KCqVq1qccWOZWVl6a9//avdSGJh5s+fL29vbxO2nDFx4kTNmzfP7tzvf/97NW7cWJKUlJSk7777TlLOJhyTJk3S999/r2XLlsnbu/BZxDVr1lRUVJR69+4tSbpy5YqeeOIJffnll0UGu0uXLulPf/qTaYeGhpo3zRXdli1blJaW5tY+27RpU+rBqU2bNiY4OdoCfvfu3bpx44aaNm2qevXqFXiN7eMGGjZs6FItP/30k+bOnaukpCQNHDhQjz/+uEuvBwCUP5717tdDDRs2TBMmTNCVK1ckScuXL3c5OG3dutUc9+vXz631lSdeXl7q2LGjOnTooLi4OEVHR5tpX5mZmfriiy+0a9cu9ejRQ3379pWvr6/FFRfub3/7mwlN/v7++tOf/qQBAwbI29tbJ06c0OzZs3Xs2DFz/dy5czV48GB17NjRYd8vvfSSXWhq3ry5pk6dqiFDhtiF7s2bN2vmzJkmmEdFRalevXr629/+VmT/vXr10vjx4/X3v/9dkrRjxw7NmzevyBGrcePG6dy5c5Kk2267TStWrHD4AcD48ePzTdXbu3ev3UhHRESEy2+6UTxt2rQxx/v37y/0ukuXLqlz586SpLFjx+rNN98s9LpcrvwMz5w5o7CwMDP6/PHHH+vIkSOaPXu2030AAMofpup5iDFjxmjJkiWm/e2336ply5ZOvfbkyZNq0KCBpJxpaRcuXNDtt99eInWWN9nZ2YqNjdXGjRt14cIFu69VrVpVffr0Uffu3S0focs7Ve8//uM/zDqhHj166B//+IcZCcp18+ZNDRkyRJ988ok5FxkZqeXLlxd5r5iYGLs1R4MHD9bKlStVpUqVAq//9ddf1aNHD8XFxZlzX331lcN1VTdu3FD79u116NAhSTlhaO/evQX+XuedojdjxgxNnz69yP4LM2fOHL344oumHRsbq7CwsGL1VVoWLlyo9PR0t/Y5YsSIUl/bd+LECbuA88svvxQ48vTpp5/q4YcfliQFBQUVuD5RkkaOHKlly5ZJkhYvXqwxY8Y4Vcfo0aP19ttv5zt/8uRJhYSEONUHAKAcyoZHiI2NzZZk/jz99NNOv/bVV181r+vbt28JVll+3bx5M3vXrl3ZU6ZMyR49erTdn4kTJ2Z/9dVX2Tdv3rSsvpiYGLuff+6fsWPHFllXUlJSdtWqVc31gYGB2ZmZmYVen5GRkd20aVNzfceOHbPT09Md1peYmJhdo0YN87r+/fs79X19++232f7+/uZ1LVu2zHe/lJSU7Lp165prQkNDszMyMpzqvyDPPfec3d/hsWPHit0XXGf7s9y2bVuB10yaNMnuZ7Rv374Crxs4cKC5ZsuWLU7X0KdPnwL/Pe3YsaNY3xMAoHxgqp6HCAsLU4sWLXT48GFJ0sqVKzV37lynppKtWbPGHA8bNqzEanTWL7/84tJam6I8/PDDuv/++2+5H29vb3Xq1En33Xef9uzZo+joaDMN6JdfftGqVav0448/3vIuYO7UrVs3vf7660WuJwoKCtLQoUPNKNPVq1f1ww8/6N577y3w+jVr1ujo0aOmvXDhQt12220Oa2nQoIGmTZumCRMmSJI2bdqkhIQENWnSpMjXtWzZUrNnz9b48eMlSYcOHdILL7ygV1991VwzZswYM0WvcuXKTk3RK0pKSopdu06dOsXuC65r3769Nm7cKClnx8vu3bvnu2b37t127ejoaLVt2zbfdbabljRq1MjpGoYNG6bPP//c7tw999xT5kceAQC3huc4eZDRo0eb4ytXruiDDz5w+JojR44oPj5ekhQQEKBBgwaVWH3OysrK0qVLl9zyx90L5r29vdW5c2e98sor+baoTk1Ndeu9btWCBQuKDE258q5pSkhIKPTad9991+519913n9P15F1cv23bNqde98wzz9hNQ1ywYIG++uorSdKHH36ojz76yHxt0qRJCg0NdbqmguSuFZRyft6BgYG31B9cY/vzK2idU1pamv75z3/ancsNWnnlruHz9/d3aY1TZGSkXnrpJdO+55579NFHHzn1IQEAoPwiOHmQ8PBw+fn5mXZUVJTD19jO4x82bBhvEp1w/PhxzZkzRz/++KPdeX9/f4sqyq9Vq1ZOB4jf//73du3Cti1PTU3Vjh07THvAgAEu1XTHHXeYtXSS/U6ORfHy8tI777yjO+64w5wbMWKEjh07pqefftqcy92g4lb9+uuvdjWjdLVr184cFxSccnfTk2T+v4uLi8u3rfy1a9d07do1SVKLFi1crmPWrFk6f/68Dhw4oMOHDxerDwBA+cJUPQ9SvXp1DRkyRO+9956knAeJHj16VE2bNi3w+tTUVK1YscK0nV04XdL8/PzUtWtXt/Tl6vOsinLp0iV9/PHH+Z4F4+vrq/79+7v0kNaSVtC0pcJUq1bNrp37ZjOvuLg4uxG81q1bu1yX7Sf2hS3oL0hQUJCWLFmiRx99VFLOFKz27dub0SEfHx+tXLnSLSMCtrvslaUw7Clsg9PRo0eVkpKiWrVqmXO20/RGjRqlN954Q1LOqJPtdvS20/SKeoBxUerUqcNUTQDwIAQno27xagAAIABJREFUDxMZGWmCk5QzopT3WTu53n//fV29elWS1KlTJ6e2oS4NAQEBeuyxx6wuw0hPT9emTZsUExOjzMxMu6+FhYXpj3/8Y77wYTXbN5qO5A0bhT1I9aeffrJr5+5qVlx5dyl0ZODAgRo5cqSWLl0qyX5K3XPPPaf27dvfUj25bMOh7QguSsddd92l2rVr6+LFi5Jytofv06eP+fquXbskSQ888IAeffTRQoPTyZMnzXFxgxMAwLMwVc/DdOvWzW7BfVRUVKFvhG2ffVJWRpvKkuzsbO3evVtTp07V5s2b7UJTSEiIpkyZoieffLLMhSZJqlSpktv7tH0mjjsU9ntZlNdeey3fIv/mzZtr5syZ7irLLjiV5ed0VWS2a+dsp+tlZmaabfa7deumLl26mO3KY2Ji7NYZnjhxwhwTnAAAzmDEycN4eXkpMjLSPIfm4sWLWrt2bb7d8mJiYvTNN99IkurWrauhQ4eWeq1l2fHjx/X+++/nWzcRGBioRx99VJ06dbKoMuvkfU5Qt27dbimgFffNbN4Rsps3byojI8NtC/dtv09nNtcoCyrKc5xytW3bVtHR0ZKkAwcOmPP79u0za9B69OihSpUqqXfv3vroo4/022+/acuWLeZ5XrYPd27evHkpVg8AKK8ITh4oIiJC06ZNMyMkK1asyBecFi1aZI5HjRrFJ+v/Utg6pkqVKql79+4aMGCAx/5d1ahRw669ZMkSh9uJu9ukSZP0/fff25378ccf9cwzz5gpfLfKdiSsOKNiVkhMTHT7DpLu7s8Vbdq0Mce2/xZzp+nVqFHDjEr17NnT7Ky4adMmE5xyf0/8/f3VrFmzUqkbAFC+lY+PS+FWQUFBdjuebd261W6hdGJiojZs2CApZ1G97Tbmnio9PV3r1q3T1KlT84Wmli1b6uWXX9aQIUM8NjRJUs2aNe3aeUfjStqWLVvsAn/uFC1JWrZsmT788EO33Md2SmbeNW0oHbabmyQmJur8+fOS/h2cunXrZp7V1b9/f3NtdHS0srOzJUnfffedpJx/v+Vl5BAAYC1GnDxURESE1q1bJynnuUhLly7VrFmzJElvvPGGsrKyJEmDBg1S/fr1LavTatnZ2dqzZ48++eQTu80GpJytqB9//HHdc889FlVXtuSdWnfw4EF169atVO59+fJlRUZGmnbdunW1a9cudenSxezON2bMGN1///23/Puc+8Zbst+avCwbO3asbt686dY+rZqmJ+VsEFGvXj3zs927d6/69+9vglOPHj3MtcHBwWrdurW++eYbJScnKzY2Vs2aNTObmbRq1ar0vwEAQLlEcPJQDz30kIKCgpScnCwp5xP5mTNn6vr161q+fLm5znYXKk9T2Domf39/9e/fXz179uSTahstWrRQ3bp1de7cOUk5I5njx48vlXuPHj3abvvyxYsXq1GjRoqKilLv3r0l5YSrxx9/XF9++eUt/dxs10oV9kyrsqawRw6UZ+3btzcj4/v27dNdd91lfve6d+9ud23Pnj3Nms2NGzfa/fx5/hIAwFm86/NQ3t7eeuqpp0w7OTlZ0dHRWr58udmCvFmzZvnegHiC1NRU/eMf/9DcuXPzhab7779fs2bNUu/evQlNBejbt6853rp1q44cOVLi93z//ff18ccfm/Zjjz1mnufUq1cvjRs3znzt66+/1iuvvHJL96tatao5vnbtmsvbpsM9bKfrHThwwDy/qUGDBvnWLNn+Xm7evFkJCQmm3bJlyxKuFABQUfDOz4ONHDnSrr18+XK9/vrrpv3ss8+Wdkllwrlz5+x26pJy3oxNnTpVERERZXJ78bLiueeeM8eZmZl65plnzLTPkpCcnKynn37atOvWrWu3jb4kzZ0712465axZs/TPf/6z2PcMCQmxa9s+cBWlxzY4xcXFmWl6PXv2zHftH/7wBwUEBEjKGZ36/PPPC+zHVT///LP2799fbjYJAQDcGoKTBwsJCVGvXr1Me/369UpMTJSU84DUJ554wqrSyowaNWroySef1OTJkxUcHGx1OWVeixYtNHz4cNPetm2bS9P13n33XUVERDi9HmfEiBFKSUkx7YULF+r222+3u8bPz0+rVq0yU+wyMzP1+OOP69q1a07XZSvv1K758+frxo0bBV6bmZmpGTNmKCoqqlj3QuHatWtnjn/66Sdt3LhRUv5pelLO87Zyp2xK0gcffCBJatiwYb7dIJ1x/fp19evXT0FBQWrXrp2aNm2qQ4cOudwPAKB8ITh5uIiIiALPh4eHm09oPZGPj4/69u2rWbNmKSwszOpyypUFCxbojjvuMO3XX39dERERRT4g9/z583r22WcVHh6ulStXavjw4Q53rFu0aJG2bt1q2gMHDsy3rX6utm3basaMGaZ9/PjxYu8WafthgyTt3LlTgwYN0unTp825xMRETZ8+XY0bN9bMmTO1ePHiYt0LhatXr55+97vfmXZugLadlmfLdiQqd4SouBtDzJo1S5s3bzbtkydPasCAAeVmsxAAQPGwOYSHGzx4sJ555hldvHjRnPP29tbYsWMtrMpaNWvW1MyZM1W7dm2rSymXateurWXLlmno0KH67bffJEkrV67U6tWr1bNnT7Vu3Vr+/v6Scnaoi4uL09atW+1Gbfz9/eXl5VXoPY4fP67Jkyfb3XPJkiVF1jVp0iRt3rxZO3bskCStWbNGvXr10pNPPunS99e1a1d17NhRcXFx5tzGjRvzTeGzFRcXp4SEhFJ/rlVF1759e7M7niR16NCh0BEk2xGnXMUNTnkfSSBJp06d0pIlS/Rf//VfxeoTAFD2MeLk4Xx9ffNNyevXr58aNWpkUUXWq1GjBqHpFj300EPavXu33RvTGzduaNOmTZozZ46mTZumadOmafr06dq4caMJTT4+PpoxY4aWLVumSpUqFdh3VlaWhg8fbvfp/t///ne7Ua6CeHt767333rN7vtOECRN04sQJl763SpUq6e2331atWrWcur5u3bpav349oakE5F2fVNRmNk2aNFHDhg3tzhU3ONmOdNkqjc1QAADWITgh3yfuY8aMsagSVCShoaHav3+/3n33XXXq1Mk8kLQgfn5+6t27t+Lj4zV9+vQi+509e7b27Nlj2n379nV6PV79+vX12muvmfaVK1f02GOPufwg21atWmn79u267777Cr2mU6dOWrx4sRISEvTwww+71D+ckzc42T6/qSC2D/6WpNatWxfrvvPmzSMIA4AH8sq2fZojPNbOnTvNm8cHHnigyGlSQHH89ttv2r9/v06fPq3k5GR5eXkpKChIISEhatu2rXx9fa0usVhOnz6tH374QQkJCcrMzFSTJk0UFhbm9IgUyqfjx49r8ODB5vlQkvTf//3fmjRpkoVVAQBKEsEJAIBi+OKLL+xGuXbu3KnOnTtbWBEAoCQxVQ8AgGJISkoyx126dCE0AUAFR3ACAKAYVqxYYY6nTJliYSUAgNJAcAIAwEWfffaZvvjiC0nS6NGjC9zuHABQsbDGCQAAF/z000/q0KGDkpOT1ahRIx08eFBVq1a1uiwAQAljxAkAACedOHFCPXr0UHJysqpVq6a1a9cSmgDAQxCcAABwUnZ2tq5fvy4fHx+tXr262A/RBQCUP0zVAwDABceOHdOOHTvyPTwcAFCxEZwAAAAAwAGm6gEAAACAAwQnAAAAAHCA4AQAAAAADhCcAAAAAMABghMAAAAAOEBwAgAAAAAHCE4AAAAA4ADBCQAAAAAcIDgBAAAAgAMEJwAAAABwgOAEAAAAAA4QnAAAAADAAYITAAAAADhAcAIAAAAABwhOAAAAAOAAwQkAAAAAHCA4AQAAAIADBCcAAAAAcIDgBAAAAAAOEJwAAAAAwAGCEwAAAAA4QHACAAAAAAcITgAAAADgAMEJAAAAABwgOAEAAACAAwQnAAAAAHCA4AQAAAAADhCcAAAAAMABghMAAAAAOOBjdQEoOQcOHFB0dLRpDx06VHffffct9TlnzhxlZmZKkvr06aOOHTveUn+e7PDhw1q3bp1p+/r6auLEiS73s3fvXn322WeSpCpVqmjChAluqxEAAAA5vLKzs7OtLgIlY/fu3ercubNpx8bGKiws7Jb6rFKlilJTUyVJ//d//6dBgwbdUn+uOnbsmA4fPuzWPoOCgm7576U4Ll++rODgYPP32axZM3333Xcu9zN+/Hi99tprkqRHHnlEn3zyiVvrBAAAACNOFVpoaKh8fHzMCFH16tULvTYpKUlHjx7Vbbfdpk6dOhV6XUZGhjlu2LCh+4p1UmJiohldcZeWLVtaEpxq1qypoUOHKioqSpL0/fff6+jRo2ratKlL/cTGxprjHj16uFxHenq65s2bp/3796tjx44aP368fH19Xe4HAACgImONUwUWEBCgli1bmvb+/fsLvfbVV19Vt27d1LlzZyUnJxd4zdWrV+2CU+PGjd1XrIcaMWKEXXvZsmUuvT4lJUVxcXGm/cgjj7j0+qysLPXr109Tp07VunXr9MILL6hv374mbAMAACAHI04VXJs2bXTgwAFJ0r59+/Sf//mfBV63a9cucxwdHa1Ro0blu+bSpUvmuF69eqpataqbq3WsZs2aatSokVv7DAoKcmt/rujatauaNGmihIQESdK7776rV155RZUrV3bq9Z9++qmysrIkSe3bt9ddd93l0v1XrVql7du325378ssvtXr1ag0fPtylvgAAACoyglMF17ZtWy1fvlySdPDgwQKvuXbtmvbt22famzdvLjA4Xbx40Rw3adLEzZU6p0OHDurQoYMl9y4po0aNMptCJCcna/369RoyZIhTr12/fr05Ls56szNnzrh0HgAAwFMxVa+Ca9u2rTneu3evGZ2wtXv3brupWZs2bTIbFtg6deqUObZifVNFFRkZKR+ff3+GkRt0Hbl8+bI2btxo2sUZIRo8eLD8/Pzszvn5+enRRx91uS8AAICKjOBUweVuECHlrFEqaNe2nTt32rXT0tIUExOT7zrbUQhXNzBA4WrXrm0XVD777DOdPn3a4evef/99s+asa9euCg4Odvned999t1avXq3AwEBJORuIrFq1Ss2aNXO5LwAAgIqM4FTB+fv7q3Xr1qZd0AYRe/bskSS7kYeCdq5LSkoyx7yxdq/ibBKxaNEicxweHl7sew8cOFDJycnau3evkpKSSn2LeQAAgPKA4OQBbKfr5W4UkSs9Pd1sDPHUU0+Z0akNGzYo7yO+bEecbvVBurDXr18/hYSEmPbKlSsLnFaZ6+uvv9b3338vSapVq1ahm344KyAgQO3atVNAQMAt9QMAAFBREZw8QGhoqDm23QRCkuLj45WWliYpZyvrrl27SsoZXbLd5lqSTp48KUny8fFhqp6beXt7KyIiwrRPnTplt34pr7ffftscjx49mucuAQAAlDCCkwewHXGKj4+3G8nIXd8UEBCgLl26qFevXuZrmzZtsuvn+PHjkqR7771X3t786rhbZGSk3d/rihUrCrzu3Llz+uCDDyTlBK4///nPpVIfAACAJ2M7cg8QGhoqb29vZWVlKS0tTYcOHTLrnnbv3i1J6tKli3x9fdWnTx9NmjRJUk5wmjlzpiTpwoULunDhgiSpefPmFnwXOeLj4/M9d+hWNWrUSIMHD3Zrn8UREhKi3r17a/PmzZJyntGUnJyc7zlTixYt0o0bNyTlrE+qX79+qdcKAADgaQhOHsDPz09t27bV3r17JeVM12vdurWysrLMiFP37t0lSa1bt1a9evWUlJSkvXv36uzZswoODrbbja9Fixal/038y+XLl83Il7uUpXU9ERERJjhlZmZqxYoVevHFF83X09PT9dZbb5n2mDFjSr1GAAAAT8R8Kw/Rpk0bc5y7s97Bgwd1+fJlSf8OTpLUv39/c7xhwwZJ0g8//GDOWRmcKrpBgwapdu3aph0VFWW3SceqVat07tw5STk7G/bs2bPUawQAAPBEjDh5iHbt2pkNBXJ31sudphcUFGS3Dqp3795aunSppJzpen/5y1909OhR83Xb7c1LW/v27d0+Na1atWpu7e9WVK5cWSNGjNCrr74qSUpISFBMTIxZe/b666+ba//yl7/Iy8vLkjoBAAA8DcHJQ+QdccrIyDDbkHfv3t3uDXjv3r3NmqgtW7YoNTVVCQkJkqTAwEC7bbNL2+23367bb7/dsvuXhtGjR5vgJOVsEtGrVy998cUX+uabbyTl/Bxu5dlNAAAAcA1T9TxE69atzY5taWlp+vbbb7Vjxw5J9tP0JKl69erq0qWLJCkjI0Off/65CU4dOnQoxao9U9OmTfXAAw+Y9rp163Tx4kX97//+rzk3YsQIBQYGWlEeAACARyI4eQhfX1+70PPhhx8qKSlJkuy2IM9le27dunVmjVPLli1LuFJIOcEoV1pamubMmaN169aZc+7eFOLatWuKj4/Xr7/+6tZ+AQAAKgqCkwexXce0bNkySTkbPRS0Zqh3797meM2aNeaY4FQ6hg4dqurVq5v2ggULzPO3+vTp49Yt4Z9//nnVqlVLHTt2VJ06dfThhx+6rW8AAICKguDkQUJDQ81xSkqKpPzT9HK1a9fO7O6WkZFhzrdq1aoEK0SuKlWq6LHHHivwa+4cbdq0aZPmz59vfsZpaWkaNmyY4uLi3HYPAACAioDg5EFsN4jIVVhw8vLystuWXJJ8fHws3VHP00REROQ716hRIz388MNuu0fus73ymj17ttvuAQAAUBEQnDxIaGio/Pz8TNvb27vI5wDZTteTcqbpVa5cucTqg72wsLB8z8waNWqU2eTDHYKDgws8f/jwYbfdAwAAoCIgOHmQypUr203X+8Mf/qAqVaoUen3e4MQ0vdI3evRocxwQEKBRo0a5tf+IiAgNGDDArX0CAABURF7Z2dnZVhcBoGC//vqrmU4XGBhot8GHu6SlpSk8PFwfffSROffggw8qOjra7fcCAAAorwhOAJSenq7AwEDduHFDUs4apxdeeMHiqgAAAMoOghMAnT171mxLHxgYqFOnTqlGjRoWVwUAAFB2sMYJgJYuXWqOx40bR2gCAADIgxEnwMOdPXtWoaGhSklJUevWrRUbG2u3+yIAAAAYcQI8WkZGhiIjI5WSkqLKlStrxYoVhCYAAIACEJwAD/Xbb79pyJAhiomJkSS99dZbBT4kGQAAAAQnwKNdvXpVkjR58mRFRERYWwwAAEAZxhonwIOlpqZq4cKFmjx5sry8vKwuBwAAoMwiOAEAAACAA0zVAwAAAAAHCE4AAAAA4ADBCQAAAAAcIDgBAAAAgAMEJwAAAABwgOAEAAAAAA4QnAAAAADAAYITAAAAADhAcAIAAAAABwhOAAAAAOAAwQkAAAAAHCA4AQAAAIADBCcAAAAAcIDgBAAAAAAOEJwAAAAAwAGCEwAAAAA4QHACAAAAAAcITgAAAADgAMEJAAAAABwgOAEAAACAAwQnAAAAAHCA4AQAAAAADhCcgDIsMzNT33zzjd555x39/PPPVpcDAADgsXysLgBAwQYNGqSNGzfqxo0bqly5si5cuGB1SQAAAB6LESegjNqzZ49u3LghSbr77rtVvXp1iysCAADwXAQnoIw6f/68Of7d735nYSUAAAAgOAFl0NWrV5WVlWXaBCcAAABrEZyAMuiXX36xawcHB1tUCQAAACSCE1AmXb582a7NiBMAAIC12FWvgrt+/boWLFhgd27UqFG68847Xern4sWLWrx4sWn/+c9/Vu3atd1So6dbsGCBrl+/bnfu7Nmzdu0dO3bo3LlzhfYxderUEqkNAAAAObyys7OzrS4CJatLly76+uuvTfvMmTMuT/1au3atBg8eLEmqWbOmzp8/Lx+f0s/dx44d0+HDh93aZ1BQkMLCwtzapyvq16+fLyi5in/GAAAAJYsRJw8QERFhF5w2b96skSNHutRHbGysOe7Zs6cloUmSEhMT9dlnn7m1z5YtW1oanKyWnp6uefPmaf/+/erYsaPGjx8vX19fq8sCAAAoUwhOHmDYsGGaMGGCrly5Iklavny5y8Fp69at5rhfv35urc/TjR8/Pt9Uvb1792rDhg2mHRERoYYNG7r93llZWerXr5+2b98uSVq3bp0+//xzbd261bJwDAAAUBYxVc9DjBkzRkuWLDHtb7/9Vi1btnTqtSdPnlSDBg0kSd7e3rpw4YJuv/32EqnTkfj4ePMm310aNWpkpiGWFXPmzNGLL75o2rGxsSUyKvbuu+8qPDw83/l33nlHw4cPd/v9AAAAyis+UvYQkZGRdsFp6dKlWrhwoVOvXbt2rTnu3bu3ZaFJkjp06KAOHTpYdv/ScunSJbt2SW3EcebMGZfOAwAAeCq2I/cQYWFhatGihWmvXLlS6enpTr12zZo15njYsGFurw35paSk2LXr1KlTIvcZPHiw/Pz87M75+fnp0UcfLZH7AQAAlFcEJw8yevRoc3zlyhV98MEHDl9z5MgRxcfHS5ICAgI0aNCgEqsP/5a7Hk3KmR4ZGBhYIve5++67tXr1atN/9erVtWrVKjVr1qxE7gcAAFBeEZw8SHh4uN3oQlRUlMPXvP322+Z42LBhJfYGHvZ+/fVXc3zHHXeU6L0GDhyo5ORk7d27V0lJSYRjAACAAhCcPEj16tU1ZMgQ096+fbuOHj1a6PWpqalasWKFaY8ZM6ZE68O/2e6y5+/vX+L3CwgIULt27RQQEFDi9wIAACiPCE4eJjIy0q5tO6KU1/vvv6+rV69Kkjp16qSOHTuWaG34t7S0NHOcdw0SAAAASh/BycN069ZNTZo0Me2oqChlZGQUeO2bb75pjhltKl22wYmH0QIAAFiP7cg9jJeXlyIjI80zgi5evKi1a9fm2y0vJiZG33zzjSSpbt26Gjp0aKnXWhBPeY6T7Y6H3t58vgEAAGA1gpMHioiI0LRp05SZmSlJWrFiRb7gtGjRInM8atSoMjPqcfnyZR0/ftytfZbFdT22o4CFjQgCAACg9PBRtgcKCgrSgAEDTHvr1q06deqUaScmJmrDhg2SJB8fH7ttzFE6ckNt3mMAAABYgxEnDxUREaF169ZJkrKysrR06VLNmjVLkvTGG28oKytLkjRo0CDVr1/fsjrzat++vdvrqVatmlv7c4fs7GxzbLs1OQAAAKzhlW37Dg0eIysrS8HBwUpOTpaUMwp19uxZXb9+XcHBwWY3vW3btql79+5WluqRGjRooJMnT0rKCXa5Pw8AAABYg6l6Hsrb21tPPfWUaScnJys6OlrLly83b9KbNWtGaLJI1apVzfG1a9d04cIFC6sBAAAAwcmDjRw50q69fPlyvf7666b97LPPlnZJ+JeQkBC79u7du0v0fteuXVN8fDzTAgEAAApBcPJgISEh6tWrl2mvX79eiYmJkqRatWrpiSeesKo0j9eiRQu79vz583Xjxo0Cr83MzNSMGTMUFRVVrHs9//zzqlWrljp27Kg6deroww8/LFY/AAAAFRnBycNFREQUeD48PLxMbtPtKWwDrSTt3LlTgwYN0unTp825xMRETZ8+XY0bN9bMmTO1ePFil++zadMmzZ8/32x5npaWpmHDhikuLu7WvgEAAIAKhs0hPFx6erqCg4N18eJFc87b21tHjx5Vo0aNLKzMs928eVOdOnVyOcAcPXpUTZo0cfr6l19+WdOnT893/pFHHtEnn3zi0r0BAAAqMkacPJyvr2++KXn9+vUjNFmsUqVKevvtt1WrVi2nrq9bt67Wr1/vUmiSpODg4ALPHz582KV+AAAAKjqCE/Tkk0/atceMGWNRJbDVqlUrbd++Xffdd1+h13Tq1EmLFy9WQkKCHn74YZfvERERYfcwZAAAABSMqXqQlLOGJjMzU5L0wAMPyMvLy+KKYOv06dP64YcflJCQoMzMTDVp0kRhYWFOj0gVJS0tTeHh4froo4/MuQcffFDR0dG33DcAAEBFQXACoPT0dAUGBpqd+2bPnq0XXnjB4qoAAADKDoITAJ09e1b169eXJAUGBurUqVOqUaOGxVUBAACUHaxxAqClS5ea43HjxhGaAAAA8mDECfBwZ8+eVWhoqFJSUtS6dWvFxsbKz8/P6rIAAADKFEacAA+WkZGhyMhIpaSkqHLlylqxYgWhCQAAoAAEJ8BD/fbbbxoyZIhiYmIkSW+99ZbatGljcVUAAABlE8EJ8GBXr16VJE2ePFkRERHWFgMAAFCGscYJ8GCpqalauHChJk+ezLO7AAAAikBwAgAAAAAHmKoHAAAAAA4QnAAAAADAAYITAAAAADhAcAIAAAAABwhOAAAAAOAAwQkAAAAAHCA4AQAAAIADBCcAAAAAcIDgBAAAAAAOEJwAAAAAwAGCEwAAAAA4QHACAAAAAAcITgAAAADgAMEJAAAAABwgOAEAAACAAwQnAAAAAHCA4AQAAAAADhCcAAAAAMABghMAAAAAOODj7g7j4uI0ZcoU065ataoaNGigkJAQNW7cWN27d5e/v7+7bwsAAAAAJcbtweny5cuKiYkp9Os1a9bUuHHjNG3aNFWqVMndtwcAAAAAtyv1qXqXL1/Wyy+/rL59++ratWulfXsAAAAAcJlXdnZ2tjs7vHTpkr799tt85w8fPqxFixbphx9+MOceeughrV+/Xt7eLLUCAAAAUHa5PTgVJSMjQxMmTNCbb75pzi1cuFBPP/10aZUAAAAAAC4r1eAkSVlZWWrVqpWOHDkiSWrWrJm+++670iwBAAAAAFxS6nPkvL299cc//tG0v//+e50+fbq0ywAAAAAAp1myuCg0NNSufeLECSvKAAAAAACnWBKcqlevbtdOSUmxogwAAAAAcIolwSkrK8uunZaWZkUZAAAAAOAUS4JT3uc3+fv7W1EGAAAAADjFkuB0/fp1u3aVKlWsKAMAAAAAnFImnjwbEBBgdQkAAAAAUChLgtOdd95p18675gm01ZkRAAADLklEQVQAAAAAyhJLgtNdd91l12ZXPQAAAABlmSXBqXHjxmrevLlpHzhwwIoyAAAAAMAplq1xGj58uDlevXq1UlNTrSoFAAAAAIpkWXAaO3as7r33XknSsWPHNGjQIJ0/f96qcgAAAACgUF7Z2dnZVt38xx9/VPfu3ZWUlCRJqlOnjoYOHaq6detKkqZMmSJv7zKx8R8AAAAAD2ZpcJKk1NRUvfbaa5oyZUq+r2VkZMjHx8eCqgAAAADg3ywfzlm9erXeeustq8sAAAAAgEJZOpyzfPlyjRw50rQ7d+6scePGmal6lSpVsqo0AAAAADAsm6p37Ngx3Xvvvbpx44YkadSoUVq8eDFhCQAAAECZY9lUvaioKBOagoKC9MYbbxCaAAAAAJRJlgWnNWvWmOMBAwbI19fXqlIAAAAAoEiWBKfr16/r+PHjpt28eXMrygAAAAAAp1gSnPI+6LZatWpWlAEAAAAATrEkOKWkpNi1vby8rCgDAAAAAJxiSXDKu5Ffenq6FWUAAAAAgFMsCU7+/v52bYITAAAAgLKsTASn3G3JAQAAAKAsIjgBAAAAgAOWBCc2gwAAAABQnlgSnC5evGjXrlKlihVlAAAAAIBTLAlOhw8ftmvXrl3bijIAAAAAwCmWBKdNmzbZtdu2bWtFGQAAAADgFK/svA9VKmEHDx5Uu3btlJWVJUlq0KCBjh8/zronAAAAAGVWqY44rV+/Xt27dzehSZL++te/EpoAAAAAlGluH3E6dOiQJkyYkO/84cOH9fPPP9ud69y5s7788kv5+Pi4swQAAAAAcCu3J5YrV64oJibG4XWdO3fW2rVrCU0AAAAAyrxSTS21atXSvffeq/DwcIWHh6ty5cqleXsAAAAAKBa3T9W7cuWKDhw4YHeuRo0aCgkJUc2aNd15KwAAAAAoFaW+qx4AAAAAlDeWPMcJAAAAAMoTghMAAAAAOEBwAgAAAAAHCE4AAAAA4ADBCQAAAAAcIDgBAAAAgAMEJwAAAABwgOAEAAAAAA4QnAAAAADAAYITAAAAADhAcAIAAAAABwhOAAAAAOAAwQkAAAAAHCA4AQAAAIAD/w9ShfyDV9YsQQAAAABJRU5ErkJggg==;" parent="1" vertex="1">
          <mxGeometry x="20" y="145.5" width="314.13" height="189" as="geometry" />
        </mxCell>
        <mxCell id="IKD4-JbFTbAdGUygyEOD-1" value="S0: w == 0 * sll(p, l)" style="rounded=1;whiteSpace=wrap;html=1;" vertex="1" parent="1">
          <mxGeometry x="368" y="116" width="280" height="30" as="geometry" />
        </mxCell>
      </root>
    </mxGraphModel>
  </diagram>
</mxfile>
